<svg id="Layer_1" data-name="Layer 1" xmlns="http://www.w3.org/2000/svg" viewBox="0 0 352.9 353.43"><defs><style>.cls-1,.cls-3,.cls-4,.cls-5,.cls-6{fill:none;stroke-linecap:round;stroke-miterlimit:10;}.cls-1,.cls-3,.cls-6{stroke:#000;}.cls-1{stroke-width:0.4px;}.cls-2{fill:#fff;}.cls-3{stroke-width:0.8px;}.cls-4{stroke:#1fa093;}.cls-4,.cls-5{stroke-dasharray:2.99 2.99;}.cls-5{stroke:#e95848;}.cls-6{stroke-width:0.5px;}</style></defs><title>cns_14_Supp_Cos</title><line class="cls-1" x1="0.2" y1="183.15" x2="336.77" y2="183.15"/><path d="M340.36,183.15a14.43,14.43,0,0,1-4-1.49v3a14.43,14.43,0,0,1,4-1.49"/><rect class="cls-2" x="340.56" y="177.68" width="12.34" height="10.93"/><path d="M347.22,182.33c.06-.26.29-1.17,1-1.17a1,1,0,0,1,.5.13.58.58,0,0,0-.48.54.35.35,0,0,0,.35.35h0a.55.55,0,0,0,.54-.56h0c0-.52-.59-.66-.92-.66a1.28,1.28,0,0,0-1,.76,1.1,1.1,0,0,0-1.07-.76c-1,0-1.6,1.28-1.6,1.53s.1.1.12.1a.12.12,0,0,0,.13-.11c.34-1.05,1-1.3,1.33-1.3s.54.09.54.67a14.4,14.4,0,0,1-.54,2.36c-.16.62-.51,1-.94,1a1,1,0,0,1-.5-.13.56.56,0,0,0,.47-.54.34.34,0,0,0-.33-.35h0a.56.56,0,0,0-.55.57h0c0,.46.5.66.93.66a1.33,1.33,0,0,0,1-.75,1.09,1.09,0,0,0,1.07.75c1,0,1.59-1.28,1.59-1.53s-.09-.1-.12-.1a.12.12,0,0,0-.13.11c-.33,1.06-1,1.3-1.32,1.3a.62.62,0,0,1-.55-.66,3.84,3.84,0,0,1,.17-.87l.34-1.36"/><line class="cls-1" x1="170.28" y1="353.23" x2="170.28" y2="16.65"/><path d="M170.28,13.07a14.43,14.43,0,0,1-1.49,4h3a14.43,14.43,0,0,1-1.49-4"/><rect class="cls-2" x="164.34" width="11.88" height="12.87"/><path d="M172.53,3.85a.64.64,0,0,0,0-.23.27.27,0,0,0-.27-.27h0a.43.43,0,0,0-.35.21s-.1.36-.14.54-.14.53-.2.79l-.45,1.79a1.38,1.38,0,0,1-1.12.84c-.51,0-.62-.44-.62-.8a5.92,5.92,0,0,1,.51-1.95,1.83,1.83,0,0,0,.2-.72.79.79,0,0,0-.77-.81h0c-.94,0-1.31,1.44-1.31,1.53s.1.1.12.1.11,0,.16-.18c.27-.93.67-1.23,1-1.23.08,0,.25,0,.25.32a2.07,2.07,0,0,1-.17.7,6.59,6.59,0,0,0-.57,2.09,1.11,1.11,0,0,0,1,1.18H170a1.4,1.4,0,0,0,1-.45,3.82,3.82,0,0,1-.65,1.53,1.42,1.42,0,0,1-1.09.63A.8.8,0,0,1,168.5,9a.57.57,0,0,0,.43-.12.54.54,0,0,0,.2-.41.34.34,0,0,0-.33-.35h0a.57.57,0,0,0-.56.64.94.94,0,0,0,1,.86h0a2.62,2.62,0,0,0,2.32-2l1-3.79"/><circle class="cls-3" cx="170.28" cy="183.15" r="113.39"/><line class="cls-1" x1="113.59" y1="181.15" x2="113.59" y2="185.14"/><path d="M110.53,191c.11,0,.28,0,.28-.17s-.16-.18-.28-.18h-4.19c-.11,0-.28,0-.28.17s.16.18.28.18h4.19"/><path d="M113.5,192.57a.92.92,0,0,1-.89-.77,7.32,7.32,0,0,1-.1-1.51,6,6,0,0,1,.11-1.43.91.91,0,0,1,1.76-.06,5.73,5.73,0,0,1,.12,1.5,7.73,7.73,0,0,1-.09,1.48.92.92,0,0,1-.9.79m1.63-2.19a3.13,3.13,0,0,0-.42-1.82,1.46,1.46,0,0,0-1.22-.6c-1.63,0-1.63,1.92-1.63,2.43s0,2.38,1.63,2.38,1.63-1.88,1.63-2.38Z"/><path d="M117.09,192.23a.4.4,0,1,0-.41.4.41.41,0,0,0,.41-.4"/><path d="M119,188.71a2.52,2.52,0,0,0,.68.09,1.68,1.68,0,0,0,1.48-.74c0-.08,0-.1-.08-.1H121a2.88,2.88,0,0,1-1.06.2,2.78,2.78,0,0,1-1-.19h-.09c-.09,0-.09.08-.09.19v2.07c0,.12,0,.21.11.21s.07,0,.14-.1a1.2,1.2,0,0,1,1-.44.75.75,0,0,1,.65.39,1.81,1.81,0,0,1,.17.91,1.68,1.68,0,0,1-.21.93,1,1,0,0,1-.82.42,1.17,1.17,0,0,1-1.1-.72.34.34,0,0,0,.4-.34.35.35,0,1,0-.7,0h0a1.36,1.36,0,0,0,1.42,1.27,1.63,1.63,0,0,0,1.69-1.55,1.5,1.5,0,0,0-1.47-1.53h0a1.48,1.48,0,0,0-1,.35v-1.32"/><line class="cls-1" x1="226.97" y1="181.15" x2="226.97" y2="185.14"/><path d="M223.8,193a.92.92,0,0,1-.89-.77,7.32,7.32,0,0,1-.1-1.51,6,6,0,0,1,.11-1.43.91.91,0,0,1,1.76-.06,5.73,5.73,0,0,1,.12,1.5,7.73,7.73,0,0,1-.09,1.48.92.92,0,0,1-.9.79m1.63-2.19A3.13,3.13,0,0,0,225,189a1.46,1.46,0,0,0-1.22-.6c-1.63,0-1.63,1.92-1.63,2.43s0,2.38,1.63,2.38,1.65-1.93,1.65-2.43Z"/><path d="M227.39,192.63a.4.4,0,1,0-.41.4.41.41,0,0,0,.41-.4"/><path d="M229.29,189.11a2.52,2.52,0,0,0,.68.09,1.68,1.68,0,0,0,1.48-.74c0-.08-.05-.1-.08-.1h-.06a2.88,2.88,0,0,1-1.06.21,2.78,2.78,0,0,1-1-.19h-.09c-.09,0-.09.08-.09.19v2.07c0,.12,0,.21.11.21s.07,0,.14-.1a1.2,1.2,0,0,1,1-.44.75.75,0,0,1,.65.39,1.81,1.81,0,0,1,.17.91,1.68,1.68,0,0,1-.21.93,1,1,0,0,1-.82.42,1.17,1.17,0,0,1-1.1-.72.34.34,0,0,0,.4-.34.35.35,0,1,0-.7,0h0a1.36,1.36,0,0,0,1.42,1.27,1.63,1.63,0,0,0,1.69-1.55,1.5,1.5,0,0,0-1.47-1.53h0a1.48,1.48,0,0,0-1,.35v-1.33"/><line class="cls-1" x1="68.23" y1="182.35" x2="68.23" y2="183.94"/><line class="cls-1" x1="79.57" y1="182.35" x2="79.57" y2="183.94"/><line class="cls-1" x1="90.91" y1="182.35" x2="90.91" y2="183.94"/><line class="cls-1" x1="102.25" y1="182.35" x2="102.25" y2="183.94"/><line class="cls-1" x1="124.93" y1="182.35" x2="124.93" y2="183.94"/><line class="cls-1" x1="136.26" y1="182.35" x2="136.26" y2="183.94"/><line class="cls-1" x1="147.6" y1="182.35" x2="147.6" y2="183.94"/><line class="cls-1" x1="158.94" y1="182.35" x2="158.94" y2="183.94"/><line class="cls-1" x1="272.33" y1="182.35" x2="272.33" y2="183.94"/><line class="cls-1" x1="260.99" y1="182.35" x2="260.99" y2="183.94"/><line class="cls-1" x1="249.65" y1="182.35" x2="249.65" y2="183.94"/><line class="cls-1" x1="238.31" y1="182.35" x2="238.31" y2="183.94"/><line class="cls-1" x1="215.63" y1="182.35" x2="215.63" y2="183.94"/><line class="cls-1" x1="204.3" y1="182.35" x2="204.3" y2="183.94"/><line class="cls-1" x1="192.96" y1="182.35" x2="192.96" y2="183.94"/><line class="cls-1" x1="181.62" y1="182.35" x2="181.62" y2="183.94"/><line class="cls-1" x1="172.27" y1="239.84" x2="168.29" y2="239.84"/><path d="M176.63,240c.11,0,.28,0,.28-.17s-.16-.18-.28-.18h-4.19c-.11,0-.28,0-.28.17s.16.18.28.18h4.19"/><path d="M179.6,241.57a.92.92,0,0,1-.89-.77,7.32,7.32,0,0,1-.1-1.51,6,6,0,0,1,.11-1.43.91.91,0,0,1,1.76-.06,5.73,5.73,0,0,1,.12,1.5,7.73,7.73,0,0,1-.09,1.48.92.92,0,0,1-.9.79m1.63-2.19a3.13,3.13,0,0,0-.42-1.82,1.46,1.46,0,0,0-1.22-.6c-1.63,0-1.63,1.92-1.63,2.43s0,2.38,1.63,2.38,1.63-1.88,1.63-2.38Z"/><path d="M183.19,241.23a.4.4,0,1,0-.41.4.41.41,0,0,0,.41-.4"/><path d="M185,237.71a2.52,2.52,0,0,0,.68.09,1.68,1.68,0,0,0,1.48-.74c0-.08-.05-.1-.08-.1H187a2.88,2.88,0,0,1-1.06.2,2.78,2.78,0,0,1-1-.19h-.09c-.09,0-.09.08-.09.19v2.07c0,.12,0,.21.11.21s.07,0,.14-.1a1.2,1.2,0,0,1,1-.44.75.75,0,0,1,.65.39,1.81,1.81,0,0,1,.17.91,1.68,1.68,0,0,1-.21.93,1,1,0,0,1-.82.42,1.17,1.17,0,0,1-1.1-.72.34.34,0,0,0,.4-.34.35.35,0,1,0-.7,0h0a1.36,1.36,0,0,0,1.42,1.27,1.63,1.63,0,0,0,1.69-1.55,1.5,1.5,0,0,0-1.47-1.53h0a1.48,1.48,0,0,0-1,.35v-1.32"/><line class="cls-1" x1="172.27" y1="126.46" x2="168.29" y2="126.46"/><path d="M176.5,128.67a.92.92,0,0,1-.89-.77,7.32,7.32,0,0,1-.1-1.51,6,6,0,0,1,.11-1.43.91.91,0,0,1,1.76-.06,5.73,5.73,0,0,1,.12,1.5,7.73,7.73,0,0,1-.09,1.48.92.92,0,0,1-.9.79m1.63-2.19a3.13,3.13,0,0,0-.41-1.82,1.46,1.46,0,0,0-1.22-.6c-1.63,0-1.63,1.92-1.63,2.43s0,2.38,1.63,2.38,1.62-1.86,1.62-2.38Z"/><path d="M180,128.33a.4.4,0,1,0-.41.4.41.41,0,0,0,.41-.4"/><path d="M181.89,124.81a2.52,2.52,0,0,0,.68.09,1.68,1.68,0,0,0,1.48-.74c0-.08-.05-.1-.08-.1h-.06a2.88,2.88,0,0,1-1.06.21,2.78,2.78,0,0,1-1-.19h-.09c-.09,0-.09.08-.09.19v2.07c0,.12,0,.21.11.21s.07,0,.14-.1a1.2,1.2,0,0,1,1-.44.75.75,0,0,1,.65.39,1.81,1.81,0,0,1,.17.91,1.68,1.68,0,0,1-.21.93,1,1,0,0,1-.82.42,1.17,1.17,0,0,1-1.1-.72.34.34,0,0,0,.4-.34.35.35,0,0,0-.7,0h0a1.36,1.36,0,0,0,1.42,1.27,1.63,1.63,0,0,0,1.69-1.55,1.5,1.5,0,0,0-1.47-1.53h0a1.48,1.48,0,0,0-1,.35v-1.33"/><line class="cls-1" x1="171.08" y1="285.2" x2="169.48" y2="285.2"/><line class="cls-1" x1="171.08" y1="273.86" x2="169.48" y2="273.86"/><line class="cls-1" x1="171.08" y1="262.52" x2="169.48" y2="262.52"/><line class="cls-1" x1="171.08" y1="251.18" x2="169.48" y2="251.18"/><line class="cls-1" x1="171.08" y1="228.5" x2="169.48" y2="228.5"/><line class="cls-1" x1="171.08" y1="217.16" x2="169.48" y2="217.16"/><line class="cls-1" x1="171.08" y1="205.82" x2="169.48" y2="205.82"/><line class="cls-1" x1="171.08" y1="194.49" x2="169.48" y2="194.49"/><line class="cls-1" x1="171.08" y1="81.1" x2="169.48" y2="81.1"/><line class="cls-1" x1="171.08" y1="92.44" x2="169.48" y2="92.44"/><line class="cls-1" x1="171.08" y1="103.78" x2="169.48" y2="103.78"/><line class="cls-1" x1="171.08" y1="115.11" x2="169.48" y2="115.11"/><line class="cls-1" x1="171.08" y1="137.79" x2="169.48" y2="137.79"/><line class="cls-1" x1="171.08" y1="149.13" x2="169.48" y2="149.13"/><line class="cls-1" x1="171.08" y1="160.47" x2="169.48" y2="160.47"/><line class="cls-1" x1="171.08" y1="171.81" x2="169.48" y2="171.81"/><line class="cls-4" x1="268.48" y1="130.19" x2="268.48" y2="182.35"/><line class="cls-5" x1="72.08" y1="129.85" x2="72.08" y2="182.1"/><line class="cls-1" x1="170.28" y1="183.15" x2="268.48" y2="126.46"/><circle cx="268.48" cy="126.45" r="1.59"/><circle class="cls-1" cx="268.48" cy="126.45" r="1.59"/><line class="cls-1" x1="170.28" y1="183.15" x2="72.08" y2="126.46"/><circle cx="72.08" cy="126.45" r="1.59"/><circle class="cls-1" cx="72.08" cy="126.45" r="1.59"/><path d="M200.84,175a1.29,1.29,0,0,1,1.32,1.26s0,.08,0,.11a2.7,2.7,0,0,1-2.35,2.71l1-4.08m-1.25,4a1.29,1.29,0,0,1-1.31-1.27s0-.07,0-.1a2.69,2.69,0,0,1,2.33-2.71Zm1.9-6.56v-.14s0-.1-.12-.1-.11,0-.15.2l-.58,2.29a3.11,3.11,0,0,0-3,2.72,1.83,1.83,0,0,0,1.86,1.8h.05c-.08.31-.15.63-.23.93-.12.47-.22.84-.22.87a.17.17,0,0,0,.12.11.12.12,0,0,0,.1,0,2.47,2.47,0,0,0,.11-.4l.38-1.48a3.12,3.12,0,0,0,3-2.72,1.83,1.83,0,0,0-1.86-1.8h-.05Z"/><path class="cls-6" d="M193,183.15a23.44,23.44,0,0,0-1.64-8.92"/><path d="M189.92,171.81a11.23,11.23,0,0,1,.54,3.26l2-1.16a11.24,11.24,0,0,1-2.55-2.1"/><polyline class="cls-6" points="187.29 183.15 187.19 181.3 186.88 179.47 186.38 177.68 185.69 175.96 184.82 174.33 183.77 172.8 182.56 171.39 181.21 170.12 179.73 169.01 178.13 168.06 176.44 167.3 174.68 166.72 172.87 166.34 171.02 166.16 169.17 166.18 167.33 166.4 165.52 166.82 163.77 167.44 162.1 168.24 160.53 169.22 159.07 170.36 157.74 171.66 156.56 173.09 157.07 172.31"/><path d="M155.55,174.65a11.2,11.2,0,0,1,2.66-2l-1.94-1.27a11.17,11.17,0,0,1-.72,3.22"/><rect class="cls-2" x="148.14" y="139.54" width="44.28" height="15.78"/><path d="M154.86,144.22c0-.24,0-.26-.23-.26a2.45,2.45,0,0,1-1.81.64v.31a3,3,0,0,0,1.3-.26v5.15c0,.36,0,.48-.93.48h-.32v.31h3.22v-.31h-.32c-.89,0-.92-.11-.92-.48v-5.57"/><path d="M158.91,147.41l1.22.77a1.33,1.33,0,0,1,.75,1.09,1.43,1.43,0,0,1-1.56,1.25,1.5,1.5,0,0,1-1.57-1.43h0a1.94,1.94,0,0,1,1.16-1.68m1-.42a1.85,1.85,0,0,0,1.2-1.54,1.64,1.64,0,0,0-1.79-1.48h0a1.73,1.73,0,0,0-1.8,1.66h0a1.59,1.59,0,0,0,.44,1.09,6.33,6.33,0,0,0,.73.54,2.2,2.2,0,0,0-1.43,1.83,1.9,1.9,0,0,0,2.06,1.72,2,2,0,0,0,2.07-1.89,1.8,1.8,0,0,0-.49-1.22,4.18,4.18,0,0,0-1-.68Zm-1.45-.94a.93.93,0,0,1-.5-.81c0-.61.65-1,1.35-1a1.29,1.29,0,0,1,1.36,1.22h0a1.68,1.68,0,0,1-1,1.39Z"/><path d="M164.31,150.58c-.39,0-1-.25-1.15-1.2a20.78,20.78,0,0,1,0-3.93c.19-1.18.93-1.27,1.18-1.27a1.27,1.27,0,0,1,1.17,1.16,12.12,12.12,0,0,1,.1,1.94,12.33,12.33,0,0,1-.11,2.06c-.15.94-.72,1.24-1.16,1.24m2.1-3.18a5.32,5.32,0,0,0-.4-2.32,1.84,1.84,0,0,0-1.69-1.11,1.82,1.82,0,0,0-1.73,1.18,5.33,5.33,0,0,0-.37,2.26,5,5,0,0,0,.45,2.39,1.86,1.86,0,0,0,3.37-.15,5.29,5.29,0,0,0,.34-2.24Z"/><path d="M168.89,146.09a1.16,1.16,0,1,1,1.17-1.17,1.16,1.16,0,0,1-1.17,1.17h0m1.51-1.16a1.51,1.51,0,1,0-1.51,1.51h0A1.5,1.5,0,0,0,170.4,145S170.4,144.94,170.4,144.93Z"/><path d="M180.18,148.3c.17,0,.35,0,.35-.2s-.18-.2-.35-.2h-5.37c-.17,0-.35,0-.35.2s.18.2.35.2h5.38"/><path d="M187.36,146.4a1.29,1.29,0,0,1,1.32,1.26s0,.08,0,.11a2.7,2.7,0,0,1-2.35,2.71l1-4.08m-1.28,4.08a1.29,1.29,0,0,1-1.31-1.27s0-.07,0-.1a2.69,2.69,0,0,1,2.33-2.71Zm1.9-6.56v-.14s0-.1-.12-.1-.11,0-.15.2l-.58,2.29a3.11,3.11,0,0,0-3,2.72,1.83,1.83,0,0,0,1.86,1.8H186c-.08.31-.15.63-.23.93-.12.47-.22.84-.22.87a.17.17,0,0,0,.12.11.12.12,0,0,0,.1,0,2.47,2.47,0,0,0,.11-.4l.38-1.48a3.12,3.12,0,0,0,3-2.72,1.83,1.83,0,0,0-1.86-1.8h-.05Z"/><path d="M25.39,179.51s0-.05-.17-.22a6.59,6.59,0,0,1-1.56-4.65,6.5,6.5,0,0,1,1.6-4.7c.13-.12.13-.14.13-.17a.09.09,0,0,0-.08-.1h0a4.32,4.32,0,0,0-1.58,1.94,7.64,7.64,0,0,0,0,6.13,4.28,4.28,0,0,0,1.55,1.87.09.09,0,0,0,.1-.1"/><path d="M32.55,174.85c.17,0,.35,0,.35-.2s-.18-.2-.35-.2H27.17c-.17,0-.35,0-.35.2s.18.2.35.2h5.37"/><path d="M36.62,170.77c0-.24,0-.26-.23-.26a2.45,2.45,0,0,1-1.81.64v.31a3,3,0,0,0,1.3-.26v5.15c0,.36,0,.48-.92.48h-.32v.31h3.22v-.31h-.32c-.89,0-.92-.11-.92-.48v-5.57"/><path d="M40.72,177.12c0-.66-.25-1-.64-1a.51.51,0,0,0-.53.49s0,0,0,0a.53.53,0,0,0,.87.4h0v.15a2.39,2.39,0,0,1-.68,1.66c-.11.11-.11.13-.11.16a.1.1,0,0,0,.09.11h0a2.37,2.37,0,0,0,.9-1.93"/><path d="M45.57,177.13c-.39,0-1-.25-1.15-1.2a20.73,20.73,0,0,1,0-3.93c.19-1.18.93-1.27,1.18-1.27a1.27,1.27,0,0,1,1.17,1.16,12.12,12.12,0,0,1,.1,1.94,12.29,12.29,0,0,1-.11,2.06c-.15.94-.72,1.24-1.16,1.24M47.7,174a5.31,5.31,0,0,0-.4-2.32,1.84,1.84,0,0,0-1.69-1.11,1.82,1.82,0,0,0-1.73,1.18,5.33,5.33,0,0,0-.37,2.26,5,5,0,0,0,.45,2.39,1.86,1.86,0,0,0,3.37-.15,5.28,5.28,0,0,0,.34-2.25Z"/><path d="M51,174.65a7.25,7.25,0,0,0-.65-3.1,4.28,4.28,0,0,0-1.55-1.87.09.09,0,0,0-.1.1s0,.05.19.23a6.44,6.44,0,0,1,1.54,4.64,6.52,6.52,0,0,1-1.6,4.7c-.13.12-.13.14-.13.17a.09.09,0,0,0,.08.1h0a4.32,4.32,0,0,0,1.58-1.94,7.22,7.22,0,0,0,.63-3"/><path d="M292.89,179.51s0-.05-.17-.22a6.59,6.59,0,0,1-1.56-4.65,6.5,6.5,0,0,1,1.6-4.7c.13-.12.13-.14.13-.17a.09.09,0,0,0-.08-.1h0a4.32,4.32,0,0,0-1.58,1.94,7.65,7.65,0,0,0,0,6.13,4.28,4.28,0,0,0,1.55,1.87.09.09,0,0,0,.1-.08.09.09,0,0,0,0,0"/><path d="M296.42,170.77c0-.24,0-.26-.23-.26a2.45,2.45,0,0,1-1.81.64v.31a3,3,0,0,0,1.3-.26v5.15c0,.36,0,.48-.93.48h-.32v.31h3.22v-.31h-.32c-.89,0-.92-.11-.92-.48v-5.57"/><path d="M300.52,177.12c0-.66-.25-1-.64-1a.51.51,0,0,0-.53.49s0,0,0,0a.53.53,0,0,0,.87.4h0v.15a2.39,2.39,0,0,1-.68,1.66c-.11.11-.11.13-.11.16a.1.1,0,0,0,.09.11h0a2.37,2.37,0,0,0,.9-1.93"/><path d="M305.37,177.13c-.39,0-1-.25-1.15-1.2a20.78,20.78,0,0,1,0-3.93c.19-1.18.93-1.27,1.18-1.27a1.27,1.27,0,0,1,1.17,1.16,12.12,12.12,0,0,1,.1,1.94,12.33,12.33,0,0,1-.11,2.06c-.15.94-.72,1.24-1.16,1.24m2.1-3.18a5.32,5.32,0,0,0-.4-2.32,1.84,1.84,0,0,0-1.69-1.11,1.82,1.82,0,0,0-1.73,1.18,5.33,5.33,0,0,0-.37,2.26,5,5,0,0,0,.45,2.39,1.86,1.86,0,0,0,3.37-.15,5.29,5.29,0,0,0,.34-2.25Z"/><path d="M310.77,174.65a7.25,7.25,0,0,0-.65-3.1,4.29,4.29,0,0,0-1.55-1.87.09.09,0,0,0-.1.08.09.09,0,0,0,0,0s0,.05.19.23a7.73,7.73,0,0,1-.06,9.34c-.13.12-.13.14-.13.17a.09.09,0,0,0,.08.1h0a4.32,4.32,0,0,0,1.58-1.94,7.21,7.21,0,0,0,.63-3"/><rect class="cls-2" x="152.01" y="302.41" width="36.53" height="16.6"/><path d="M158.59,315.61s0,0-.17-.22a6.59,6.59,0,0,1-1.56-4.65,6.5,6.5,0,0,1,1.6-4.7c.13-.12.13-.14.13-.17a.09.09,0,0,0-.08-.1h0a4.32,4.32,0,0,0-1.58,1.94,7.64,7.64,0,0,0,0,6.13,4.27,4.27,0,0,0,1.55,1.87.09.09,0,0,0,.1-.1"/><path d="M161.67,313.23c-.39,0-1-.25-1.15-1.2a20.78,20.78,0,0,1,0-3.93c.19-1.18.93-1.27,1.18-1.27a1.27,1.27,0,0,1,1.17,1.16,12.13,12.13,0,0,1,.1,1.94,12.33,12.33,0,0,1-.11,2.06c-.15.94-.72,1.24-1.16,1.24m2.1-3.18a5.32,5.32,0,0,0-.4-2.33,1.84,1.84,0,0,0-1.69-1.11,1.82,1.82,0,0,0-1.73,1.18,5.33,5.33,0,0,0-.37,2.26,5,5,0,0,0,.45,2.39,1.86,1.86,0,0,0,3.37-.15,5.28,5.28,0,0,0,.34-2.28Z"/><path d="M166.22,313.22c0-.66-.25-1-.64-1a.51.51,0,0,0-.53.49s0,0,0,0a.53.53,0,0,0,.87.4H166v.15a2.4,2.4,0,0,1-.68,1.66c-.11.11-.11.13-.11.16a.1.1,0,0,0,.09.11h0a2.37,2.37,0,0,0,.9-1.93"/><path d="M175.15,311c.17,0,.35,0,.35-.2s-.18-.2-.35-.2h-5.37c-.17,0-.35,0-.35.2s.18.2.35.2h5.38"/><path d="M179.32,306.87c0-.24,0-.26-.23-.26a2.45,2.45,0,0,1-1.81.64v.31a3,3,0,0,0,1.3-.26v5.15c0,.36,0,.48-.93.48h-.32v.31h3.22v-.31h-.32c-.89,0-.92-.11-.92-.48v-5.57"/><path d="M184.17,310.75a7.25,7.25,0,0,0-.65-3.1,4.29,4.29,0,0,0-1.55-1.87.09.09,0,0,0-.1.1l.19.23a7.73,7.73,0,0,1-.06,9.34c-.13.12-.13.14-.13.17a.09.09,0,0,0,.08.1h0a4.32,4.32,0,0,0,1.58-1.94,7.21,7.21,0,0,0,.63-3"/><rect class="cls-2" x="155.89" y="47.29" width="28.78" height="16.6"/><path d="M162.49,60.51l-.17-.22a6.59,6.59,0,0,1-1.56-4.65,6.5,6.5,0,0,1,1.6-4.7c.13-.12.13-.14.13-.17a.09.09,0,0,0-.08-.1h0a4.32,4.32,0,0,0-1.58,1.94,7.65,7.65,0,0,0,0,6.13,4.28,4.28,0,0,0,1.55,1.87.09.09,0,0,0,.1-.1"/><path d="M165.57,58.13c-.39,0-1-.25-1.15-1.2a13.58,13.58,0,0,1-.11-2.1,13.6,13.6,0,0,1,.08-1.83c.19-1.18.93-1.27,1.18-1.27a1.27,1.27,0,0,1,1.17,1.16,12.13,12.13,0,0,1,.1,1.94,12.33,12.33,0,0,1-.11,2.06c-.15.94-.72,1.24-1.16,1.24m2.1-3.18a5.31,5.31,0,0,0-.4-2.32,1.84,1.84,0,0,0-1.69-1.11,1.82,1.82,0,0,0-1.73,1.18,5.33,5.33,0,0,0-.37,2.26,5,5,0,0,0,.45,2.39,1.86,1.86,0,0,0,3.37-.15,5.29,5.29,0,0,0,.37-2.25Z"/><path d="M170.12,58.12c0-.66-.25-1-.64-1a.51.51,0,0,0-.53.49s0,0,0,0a.53.53,0,0,0,.87.4h0v.15a2.39,2.39,0,0,1-.68,1.66C169,60,169,60,169,60a.1.1,0,0,0,.09.11h0a2.37,2.37,0,0,0,.9-1.93"/><path d="M175.42,51.77c0-.24,0-.26-.23-.26a2.45,2.45,0,0,1-1.81.64v.31a3,3,0,0,0,1.3-.26v5.15c0,.36,0,.48-.93.48h-.32v.31h3.22v-.31h-.32c-.89,0-.92-.11-.92-.48V51.77"/><path d="M180.37,55.65a7.25,7.25,0,0,0-.65-3.1,4.29,4.29,0,0,0-1.55-1.87.09.09,0,0,0-.1.1l.19.23a6.45,6.45,0,0,1,1.54,4.64,6.51,6.51,0,0,1-1.6,4.7c-.13.12-.13.14-.13.17a.09.09,0,0,0,.08.1h0a4.32,4.32,0,0,0,1.58-1.94,7.21,7.21,0,0,0,.63-3"/></svg>