<svg id="Layer_1" data-name="Layer 1" xmlns="http://www.w3.org/2000/svg" viewBox="0 0 216.82 170.6"><defs><style>.cls-1,.cls-4,.cls-5{fill:none;stroke-linecap:round;stroke-miterlimit:10;}.cls-1{stroke:#1fa093;stroke-dasharray:2.99 2.99;}.cls-2{fill:#fff;}.cls-3{fill:#1fa093;}.cls-4,.cls-5{stroke:#000;}.cls-4{stroke-width:0.4px;}</style></defs><title>cns_16_Cos_Acute</title><line class="cls-1" x1="108.29" y1="13.38" x2="108.29" y2="157.18"/><rect class="cls-2" x="102.56" y="94.79" width="12.38" height="13.56"/><path class="cls-3" d="M108.7,98.2a.12.12,0,0,0-.13-.11c-.13,0-1,.08-1.21.1s-.19,0-.19.2.09.12.24.12c.48,0,.5.07.5.17v.2l-1.47,5.75a.62.62,0,0,0,0,.22.27.27,0,0,0,.26.28h0a.41.41,0,0,0,.37-.26l.19-.76.22-.89c.06-.22.12-.44.17-.67,0-.06.1-.39.11-.45a2.92,2.92,0,0,1,.67-.91,1.59,1.59,0,0,1,1-.35c.43,0,.54.34.54.7a8.49,8.49,0,0,1-.62,2.22,1.49,1.49,0,0,0-.13.55.79.79,0,0,0,.77.81h0c.93,0,1.3-1.45,1.3-1.53s-.09-.1-.12-.1-.1,0-.15.18c-.15.53-.47,1.23-1,1.23-.17,0-.24-.1-.24-.33a1.9,1.9,0,0,1,.18-.7,8.9,8.9,0,0,0,.61-2.19,1,1,0,0,0-1.29-1.05,1.84,1.84,0,0,0-1.47.76l.77-3.16" transform="translate(0 0.01)"/><polygon class="cls-4" points="9.08 159.11 207.51 159.11 108.29 10.29 9.08 159.11"/><path d="M2.62,158.63l2-3.28.28,3.28Zm-1.19,1.46a1.4,1.4,0,0,1-1.22.83c-.12,0-.21,0-.21.2a.12.12,0,0,0,.13.11H2c.06,0,.19,0,.19-.19s-.09-.12-.16-.12c-.23,0-.47-.1-.47-.35a.77.77,0,0,1,.14-.37l.75-1.27H4.92c0,.21.16,1.56.16,1.66,0,.3-.52.33-.72.33s-.24,0-.24.2.12.11.14.11H6.62c.06,0,.18,0,.18-.2s-.1-.11-.23-.11c-.62,0-.62-.07-.65-.36l-.57-6.15c0-.2,0-.24-.19-.24s-.2.07-.26.17Z" transform="translate(0 0.01)"/><path d="M106.89,6.47h-.22c-.1,0-.13,0-.13-.1a.82.82,0,0,1,0-.23l.69-2.77h1.88a1.07,1.07,0,0,1,1.14,1.16,2,2,0,0,1-2,2h-1.36m.51-3.34L108,.68c.09-.35.11-.38.54-.38h1.28a1,1,0,0,1,1.08.92s0,.06,0,.08a2,2,0,0,1-2.07,1.82ZM105.85,6c-.1.39-.12.47-.9.47-.17,0-.27,0-.27.2s.09.11.27.11h3.55a2.62,2.62,0,0,0,2.72-2.15c0-.72-.58-1.29-1.54-1.4,1-.19,2.08-.92,2.08-1.87,0-.73-.65-1.37-1.85-1.37h-3.34c-.19,0-.29,0-.29.2s.09.11.28.11h.38c.18,0,.27,0,.27.16a.89.89,0,0,1,0,.19Z" transform="translate(0 0.01)"/><path d="M97.87,149.48c.09-.35.11-.38.54-.38h1.06a1.66,1.66,0,0,1,1.8,1.84,6.08,6.08,0,0,1-1,3.21,3,3,0,0,1-2.3,1.12H96.63c-.1,0-.13,0-.13-.1a.8.8,0,0,1,.05-.23l1.36-5.45m-2.15,5.32c-.1.39-.12.47-.9.47-.17,0-.28,0-.28.19s.09.12.28.12h3.29a4.39,4.39,0,0,0,4-4.27,2.3,2.3,0,0,0-2.08-2.5H96.48c-.19,0-.3,0-.3.19s.09.12.29.12h.43c.16,0,.22,0,.22.16a.82.82,0,0,1,0,.19Z" transform="translate(0 0.01)"/><path d="M216.8,154.38a.1.1,0,0,0-.1-.1h0l-.15.12-.7.77a1.86,1.86,0,0,0-1.65-.88,4.78,4.78,0,0,0-4.45,4.5,2.61,2.61,0,0,0,2.5,2.72h.19a3.33,3.33,0,0,0,2.15-.85,3.27,3.27,0,0,0,1.09-1.75c0-.1-.1-.1-.12-.1a.12.12,0,0,0-.13.1,3.22,3.22,0,0,1-1,1.57,2.86,2.86,0,0,1-1.83.73,1.87,1.87,0,0,1-1.95-2.07,5.67,5.67,0,0,1,1.2-3.34,3.37,3.37,0,0,1,2.42-1.2c1,0,1.6.77,1.6,1.92a3.68,3.68,0,0,1,0,.51c0,.1.11.1.15.1s.13,0,.18-.2l.63-2.53" transform="translate(0 0.01)"/><rect class="cls-2" x="52" y="63.87" width="10.95" height="10.93"/><path d="M59.28,67.71a.53.53,0,0,0-.44.14.54.54,0,0,0-.18.39.34.34,0,0,0,.33.35h0a.58.58,0,0,0,.56-.6v0c0-.49-.47-.86-1.17-.86a3,3,0,0,0-2.66,2.82,1.58,1.58,0,0,0,1.43,1.71h.16a2.65,2.65,0,0,0,2.25-1.17.14.14,0,0,0-.12-.13s-.07,0-.13.1a2.59,2.59,0,0,1-2,1c-.62,0-.89-.49-.89-1.08a5.18,5.18,0,0,1,.54-2,1.75,1.75,0,0,1,1.4-1,1,1,0,0,1,.85.4" transform="translate(0 0.01)"/><path d="M157.71,70.8a.65.65,0,0,1-.2.37,1.54,1.54,0,0,1-1.12.71c-.5,0-.64-.55-.64-.93a7.32,7.32,0,0,1,.54-2.17,1.53,1.53,0,0,1,1.15-1c.65,0,.78.81.78.87a.83.83,0,0,1,0,.17l-.5,1.95m.63-2.54a1,1,0,0,0-.91-.64c-1.16,0-2.39,1.46-2.39,2.91a1.41,1.41,0,0,0,1.21,1.58h.09a1.67,1.67,0,0,0,1.29-.75.91.91,0,0,0,.9.75.82.82,0,0,0,.73-.55,5.14,5.14,0,0,0,.3-1c0-.1-.09-.1-.12-.1s-.11,0-.14.18c-.17.65-.35,1.23-.76,1.23s-.3-.26-.3-.46a2.52,2.52,0,0,1,.13-.74c.11-.42.13-.52.22-.89l.36-1.39A1.41,1.41,0,0,0,159,68a.26.26,0,0,0-.25-.27h0A.46.46,0,0,0,158.35,68.23Z" transform="translate(0 0.01)"/><path d="M107.59,167.45c.06-.22.06-.24.15-.35a1.62,1.62,0,0,1,1.19-.79c.36,0,.63.3.63.93a7,7,0,0,1-.51,2.11c-.33.67-.78,1-1.17,1s-.67-.27-.67-1a3.46,3.46,0,0,1,.16-1l.22-.91m.93-3.75a.12.12,0,0,0-.13-.11c-.13,0-1,.08-1.21.1s-.19,0-.19.2.09.12.24.12c.48,0,.5.07.5.17a5.38,5.38,0,0,1-.14.62l-.81,3.24a3.54,3.54,0,0,0-.16,1c0,.94.53,1.56,1.26,1.56,1.17,0,2.39-1.48,2.39-2.91A1.42,1.42,0,0,0,109,166.1H109a1.71,1.71,0,0,0-1.16.6Z" transform="translate(0 0.01)"/><polyline class="cls-4" points="118.97 158.58 118.97 148.66 109.05 148.66"/><line class="cls-5" x1="120.69" y1="164.07" x2="195.1" y2="164.07"/><line class="cls-5" x1="120.69" y1="165.07" x2="120.69" y2="163.08"/><line class="cls-5" x1="195.1" y1="165.07" x2="195.1" y2="163.08"/><rect class="cls-2" x="151.73" y="160.38" width="12.34" height="7.87"/><path d="M158.35,163.6c.06-.26.29-1.17,1-1.17a1,1,0,0,1,.5.13.58.58,0,0,0-.48.54.35.35,0,0,0,.35.35h0a.55.55,0,0,0,.54-.56h0c0-.52-.59-.66-.92-.66a1.28,1.28,0,0,0-1,.75,1.1,1.1,0,0,0-1.07-.75c-1,0-1.6,1.28-1.6,1.53s.1.1.12.1a.12.12,0,0,0,.13-.11c.34-1.05,1-1.3,1.33-1.3s.54.09.54.67a14.39,14.39,0,0,1-.54,2.36c-.16.62-.51,1-.94,1a1,1,0,0,1-.5-.13.56.56,0,0,0,.47-.54.34.34,0,0,0-.33-.35h0a.56.56,0,0,0-.55.57h0c0,.46.5.66.93.66a1.33,1.33,0,0,0,1-.75,1.1,1.1,0,0,0,1.07.75c1,0,1.59-1.28,1.59-1.53s-.09-.1-.12-.1a.12.12,0,0,0-.13.11c-.33,1.06-1,1.3-1.32,1.3a.62.62,0,0,1-.55-.66,3.84,3.84,0,0,1,.17-.87l.34-1.36" transform="translate(0 0.01)"/></svg>