<svg id="Layer_1" data-name="Layer 1" xmlns="http://www.w3.org/2000/svg" viewBox="0 0 324.23 325.21"><defs><style>.cls-1,.cls-3,.cls-4{fill:none;}.cls-1,.cls-3{stroke:#000;stroke-linecap:round;stroke-miterlimit:10;}.cls-1{stroke-width:0.4px;}.cls-2{fill:#fff;}.cls-3{stroke-width:0.8px;}</style></defs><title>CosAndSin.02</title><path class="cls-1" d="M321.25,227.1a30.88,30.88,0,0,0-4.15-15.46L290.33,227.1" transform="translate(-135.52 -56.69)"/><line class="cls-1" x1="0.2" y1="170.41" x2="305.82" y2="170.41"/><path d="M444.93,227.1a14.6,14.6,0,0,1-4-1.49v3a14.33,14.33,0,0,1,4-1.5" transform="translate(-135.52 -56.69)"/><rect class="cls-2" x="309.61" y="164" width="14.62" height="12.82"/><path d="M455.21,224.33a.72.72,0,0,0-.63.7.44.44,0,0,0,.47.46.75.75,0,0,0,.73-.76c0-.6-.69-.88-1.29-.88A1.83,1.83,0,0,0,453,225a1.49,1.49,0,0,0-1.48-1.14c-1.47,0-2.24,1.89-2.24,2.2a.14.14,0,0,0,.15.13c.12,0,.15-.08.18-.14.49-1.6,1.45-1.9,1.87-1.9.64,0,.77.6.77,1a6.16,6.16,0,0,1-.26,1.34l-.49,2c-.21.86-.63,1.65-1.39,1.65a1.42,1.42,0,0,1-.73-.19.75.75,0,0,0,.63-.7.45.45,0,0,0-.49-.46.75.75,0,0,0-.72.76c0,.6.68.87,1.3.87a1.77,1.77,0,0,0,1.47-1.13,1.5,1.5,0,0,0,1.48,1.13c1.47,0,2.25-1.88,2.25-2.19a.13.13,0,0,0-.15-.13c-.13,0-.14.07-.18.18-.39,1.27-1.23,1.86-1.87,1.86s-.78-.38-.78-1a6.63,6.63,0,0,1,.29-1.49l.5-2c.22-.87.71-1.5,1.37-1.5a1.53,1.53,0,0,1,.73.19" transform="translate(-135.52 -56.69)"/><line class="cls-1" x1="154.8" y1="325.01" x2="154.8" y2="19.39"/><path d="M290.33,72.5a14.33,14.33,0,0,1-1.5,4h3a14,14,0,0,1-1.49-4" transform="translate(-135.52 -56.69)"/><rect class="cls-2" x="147.8" width="14.01" height="15.61"/><path d="M290.38,67.8a2.12,2.12,0,0,1-1.65,1,1.07,1.07,0,0,1-1.08-.69.36.36,0,0,0,.14,0,.73.73,0,0,0,.72-.71A.44.44,0,0,0,288,67a.78.78,0,0,0-.73.88,1.3,1.3,0,0,0,1.44,1.23A3.79,3.79,0,0,0,292,66.2l1.4-5.6a.93.93,0,0,0,.05-.24.37.37,0,0,0-.39-.36.58.58,0,0,0-.55.49l-1.06,4.22a.94.94,0,0,1-.19.45,1.85,1.85,0,0,1-1.45.89c-.8,0-.87-.79-.87-1.18a9.62,9.62,0,0,1,.77-3A2.46,2.46,0,0,0,290,61a1.12,1.12,0,0,0-1.14-1.15c-1.32,0-1.85,2.09-1.85,2.2a.14.14,0,0,0,.15.13c.13,0,.15-.06.21-.26.34-1.2.89-1.78,1.45-1.78.13,0,.37,0,.37.48A4,4,0,0,1,288.8,62a7.12,7.12,0,0,0-.71,2.7,1.55,1.55,0,0,0,1.7,1.68,1.9,1.9,0,0,0,1.43-.66l0,0a5.54,5.54,0,0,1-.86,2.11" transform="translate(-135.52 -56.69)"/><circle class="cls-3" cx="154.8" cy="170.41" r="103.07"/><line class="cls-1" x1="103.27" y1="168.6" x2="103.27" y2="172.22"/><path d="M233.67,235.29c.24,0,.5,0,.5-.29s-.26-.29-.5-.29h-7.78c-.24,0-.5,0-.5.29s.26.29.5.29h7.78" transform="translate(-135.52 -56.69)"/><path d="M238.9,238.6c-.46,0-1.39-.25-1.66-1.82a17.46,17.46,0,0,1-.16-3,12.58,12.58,0,0,1,.23-3.09,1.63,1.63,0,0,1,3.25.16,15.17,15.17,0,0,1,.18,2.93,18.67,18.67,0,0,1-.15,2.93c-.28,1.58-1.18,1.85-1.69,1.85m2.94-4.61a7.91,7.91,0,0,0-.59-3.44,2.57,2.57,0,0,0-4.72.1A7.62,7.62,0,0,0,236,234a7.24,7.24,0,0,0,.62,3.47,2.55,2.55,0,0,0,2.29,1.43,2.57,2.57,0,0,0,2.39-1.58A8,8,0,0,0,241.84,234Z" transform="translate(-135.52 -56.69)"/><path d="M245,237.9a.7.7,0,1,0-.7.69.69.69,0,0,0,.7-.69" transform="translate(-135.52 -56.69)"/><path d="M248.14,230.36a4.23,4.23,0,0,0,1.28.21,3.06,3.06,0,0,0,2.65-1.39c0-.06,0-.13-.11-.13a.41.41,0,0,0-.19.06,4.67,4.67,0,0,1-3.76,0,.33.33,0,0,0-.14,0c-.12,0-.12.09-.12.32v4.26c0,.26,0,.35.17.35s.09,0,.23-.19a2.18,2.18,0,0,1,1.8-.93,1.48,1.48,0,0,1,1.25.95,4.76,4.76,0,0,1,.26,1.81,3.83,3.83,0,0,1-.4,2,1.79,1.79,0,0,1-1.51.87,2.21,2.21,0,0,1-2.14-1.69.59.59,0,0,0,.23,0,.63.63,0,1,0-.63-.57,2.61,2.61,0,0,0,2.56,2.61,3.11,3.11,0,0,0,3.05-3.19,2.91,2.91,0,0,0-2.66-3.13,2.47,2.47,0,0,0-1.82.76v-3" transform="translate(-135.52 -56.69)"/><line class="cls-1" x1="206.34" y1="168.6" x2="206.34" y2="172.22"/><path d="M336.4,239.2c-.46,0-1.39-.25-1.66-1.82a17.46,17.46,0,0,1-.16-3,12.58,12.58,0,0,1,.23-3.09,1.72,1.72,0,0,1,1.59-1.41,1.75,1.75,0,0,1,1.66,1.57,15.17,15.17,0,0,1,.18,2.93,18.67,18.67,0,0,1-.15,2.93c-.28,1.58-1.18,1.85-1.69,1.85m2.94-4.61a7.91,7.91,0,0,0-.59-3.44,2.57,2.57,0,0,0-4.72.1,7.62,7.62,0,0,0-.54,3.34,7.24,7.24,0,0,0,.62,3.47,2.55,2.55,0,0,0,2.29,1.43,2.59,2.59,0,0,0,2.39-1.58A8,8,0,0,0,339.34,234.59Z" transform="translate(-135.52 -56.69)"/><path d="M342.54,238.5a.7.7,0,1,0-.7.69.69.69,0,0,0,.7-.69" transform="translate(-135.52 -56.69)"/><path d="M345.64,231a4.23,4.23,0,0,0,1.28.21,3.06,3.06,0,0,0,2.65-1.39c0-.06,0-.13-.11-.13a.41.41,0,0,0-.19.06,4.67,4.67,0,0,1-3.76,0,.33.33,0,0,0-.14,0c-.12,0-.12.09-.12.32v4.26c0,.26,0,.35.17.35s.09,0,.23-.19a2.16,2.16,0,0,1,1.8-.93,1.48,1.48,0,0,1,1.25.95,4.76,4.76,0,0,1,.26,1.81,3.75,3.75,0,0,1-.41,2,1.78,1.78,0,0,1-1.5.87,2.21,2.21,0,0,1-2.14-1.69.59.59,0,0,0,.23,0,.63.63,0,1,0-.63-.57,2.61,2.61,0,0,0,2.56,2.61,3.11,3.11,0,0,0,3.05-3.19,2.91,2.91,0,0,0-2.66-3.13,2.47,2.47,0,0,0-1.82.76v-3" transform="translate(-135.52 -56.69)"/><line class="cls-1" x1="62.04" y1="169.69" x2="62.04" y2="171.14"/><line class="cls-1" x1="72.35" y1="169.69" x2="72.35" y2="171.14"/><line class="cls-1" x1="82.66" y1="169.69" x2="82.66" y2="171.14"/><line class="cls-1" x1="92.96" y1="169.69" x2="92.96" y2="171.14"/><line class="cls-1" x1="113.58" y1="169.69" x2="113.58" y2="171.14"/><line class="cls-1" x1="123.88" y1="169.69" x2="123.88" y2="171.14"/><line class="cls-1" x1="134.19" y1="169.69" x2="134.19" y2="171.14"/><line class="cls-1" x1="144.5" y1="169.69" x2="144.5" y2="171.14"/><line class="cls-1" x1="247.57" y1="169.69" x2="247.57" y2="171.14"/><line class="cls-1" x1="237.26" y1="169.69" x2="237.26" y2="171.14"/><line class="cls-1" x1="226.95" y1="169.69" x2="226.95" y2="171.14"/><line class="cls-1" x1="216.65" y1="169.69" x2="216.65" y2="171.14"/><line class="cls-1" x1="196.03" y1="169.69" x2="196.03" y2="171.14"/><line class="cls-1" x1="185.72" y1="169.69" x2="185.72" y2="171.14"/><line class="cls-1" x1="175.42" y1="169.69" x2="175.42" y2="171.14"/><line class="cls-1" x1="165.11" y1="169.69" x2="165.11" y2="171.14"/><path d="M294.77,279.39c.24,0,.5,0,.5-.29s-.26-.29-.5-.29H287c-.24,0-.5,0-.5.29s.26.29.5.29h7.78" transform="translate(-135.52 -56.69)"/><path d="M300,282.7c-.47,0-1.4-.25-1.67-1.82a17.46,17.46,0,0,1-.16-3,12.58,12.58,0,0,1,.23-3.09,1.72,1.72,0,0,1,1.6-1.41,1.75,1.75,0,0,1,1.65,1.57,15.17,15.17,0,0,1,.18,2.93,18.67,18.67,0,0,1-.15,2.93c-.28,1.58-1.18,1.85-1.68,1.85m2.93-4.61a7.91,7.91,0,0,0-.59-3.44,2.57,2.57,0,0,0-4.72.1,7.62,7.62,0,0,0-.54,3.34,7.24,7.24,0,0,0,.62,3.47,2.57,2.57,0,0,0,4.68-.15A8,8,0,0,0,302.94,278.09Z" transform="translate(-135.52 -56.69)"/><path d="M306.14,282a.7.7,0,1,0-.7.69.69.69,0,0,0,.7-.69" transform="translate(-135.52 -56.69)"/><path d="M309.24,274.46a4.23,4.23,0,0,0,1.28.21,3.06,3.06,0,0,0,2.65-1.39c0-.06,0-.13-.11-.13a.41.41,0,0,0-.19.06,4.67,4.67,0,0,1-3.76,0,.33.33,0,0,0-.14-.05c-.12,0-.12.09-.12.32v4.26c0,.26,0,.35.17.35s.09,0,.23-.19a2.16,2.16,0,0,1,1.8-.93,1.48,1.48,0,0,1,1.25,1,4.76,4.76,0,0,1,.26,1.81,3.75,3.75,0,0,1-.41,2,1.78,1.78,0,0,1-1.5.87,2.21,2.21,0,0,1-2.14-1.69.59.59,0,0,0,.23,0,.63.63,0,0,0,0-1.26.61.61,0,0,0-.64.69,2.62,2.62,0,0,0,2.57,2.61,3.11,3.11,0,0,0,3.05-3.19,2.91,2.91,0,0,0-2.66-3.13,2.47,2.47,0,0,0-1.82.76v-3" transform="translate(-135.52 -56.69)"/><line class="cls-1" x1="156.61" y1="118.88" x2="152.99" y2="118.88"/><path d="M294.4,180.2c-.46,0-1.39-.25-1.66-1.82a17.46,17.46,0,0,1-.16-3,12.58,12.58,0,0,1,.23-3.09,1.72,1.72,0,0,1,1.59-1.41,1.75,1.75,0,0,1,1.66,1.57,15.17,15.17,0,0,1,.18,2.93,18.67,18.67,0,0,1-.15,2.93c-.28,1.58-1.18,1.85-1.69,1.85m2.94-4.61a7.91,7.91,0,0,0-.59-3.44,2.57,2.57,0,0,0-4.72.1,7.62,7.62,0,0,0-.54,3.34,7.24,7.24,0,0,0,.62,3.47,2.55,2.55,0,0,0,2.29,1.43,2.59,2.59,0,0,0,2.39-1.58A8,8,0,0,0,297.34,175.59Z" transform="translate(-135.52 -56.69)"/><path d="M300.54,179.5a.7.7,0,1,0-.7.69.69.69,0,0,0,.7-.69" transform="translate(-135.52 -56.69)"/><path d="M303.64,172a4.23,4.23,0,0,0,1.28.21,3.06,3.06,0,0,0,2.65-1.39c0-.06,0-.13-.11-.13a.41.41,0,0,0-.19.06,4.67,4.67,0,0,1-3.76,0,.33.33,0,0,0-.14,0c-.12,0-.12.09-.12.32v4.26c0,.26,0,.35.17.35s.09,0,.23-.19a2.16,2.16,0,0,1,1.8-.93,1.48,1.48,0,0,1,1.25.95,4.76,4.76,0,0,1,.26,1.81,3.75,3.75,0,0,1-.41,2,1.78,1.78,0,0,1-1.5.87,2.21,2.21,0,0,1-2.14-1.69.59.59,0,0,0,.23,0,.63.63,0,1,0-.63-.57,2.61,2.61,0,0,0,2.56,2.61,3.11,3.11,0,0,0,3.05-3.19,2.91,2.91,0,0,0-2.66-3.13,2.47,2.47,0,0,0-1.82.76v-3" transform="translate(-135.52 -56.69)"/><line class="cls-1" x1="155.53" y1="263.17" x2="154.08" y2="263.17"/><line class="cls-1" x1="155.53" y1="252.87" x2="154.08" y2="252.87"/><line class="cls-1" x1="155.53" y1="242.56" x2="154.08" y2="242.56"/><line class="cls-1" x1="155.53" y1="232.25" x2="154.08" y2="232.25"/><line class="cls-1" x1="155.53" y1="211.64" x2="154.08" y2="211.64"/><line class="cls-1" x1="155.53" y1="201.33" x2="154.08" y2="201.33"/><line class="cls-1" x1="155.53" y1="191.02" x2="154.08" y2="191.02"/><line class="cls-1" x1="155.53" y1="180.72" x2="154.08" y2="180.72"/><line class="cls-1" x1="155.53" y1="77.65" x2="154.08" y2="77.65"/><line class="cls-1" x1="155.53" y1="87.95" x2="154.08" y2="87.95"/><line class="cls-1" x1="155.53" y1="98.26" x2="154.08" y2="98.26"/><line class="cls-1" x1="155.53" y1="108.57" x2="154.08" y2="108.57"/><line class="cls-1" x1="155.53" y1="129.18" x2="154.08" y2="129.18"/><line class="cls-1" x1="155.53" y1="139.49" x2="154.08" y2="139.49"/><line class="cls-1" x1="155.53" y1="149.8" x2="154.08" y2="149.8"/><line class="cls-1" x1="155.53" y1="160.1" x2="154.08" y2="160.1"/><line class="cls-1" x1="154.8" y1="170.41" x2="244.06" y2="118.88"/><path d="M381,175.57a1.45,1.45,0,1,0-1.45,1.45A1.45,1.45,0,0,0,381,175.57Z" transform="translate(-135.52 -56.69)"/><path class="cls-1" d="M381,175.57a1.45,1.45,0,1,0-1.45,1.45A1.45,1.45,0,0,0,381,175.57Z" transform="translate(-135.52 -56.69)"/><path d="M314.45,220.46a12.13,12.13,0,0,1-1.18,3.22c-.41.73-.92,1.4-1.52,1.4-.45,0-.8-.34-.8-1.76a12.44,12.44,0,0,1,.46-2.86h3m-2.93-.43a13,13,0,0,1,1.09-3.08c.48-.86,1-1.55,1.61-1.55.48,0,.79.41.79,1.78a10.57,10.57,0,0,1-.46,2.85Zm4.35-2c0-1.46-.46-2.89-1.63-2.89-2,0-4.16,4.21-4.16,7.37,0,.67.15,2.89,1.66,2.89C313.69,225.37,315.87,221.26,315.87,218Z" transform="translate(-135.52 -56.69)"/><path d="M385.77,172.18s0-.07-.25-.31c-1.43-1.46-2.24-3.83-2.24-6.76a9.51,9.51,0,0,1,2.34-6.88c.15-.13.15-.16.15-.2a.12.12,0,0,0-.13-.11,5.94,5.94,0,0,0-2.07,2.44,10.26,10.26,0,0,0-1.06,4.75,10.57,10.57,0,0,0,.95,4.53,6.1,6.1,0,0,0,2.18,2.66.12.12,0,0,0,.13-.12" transform="translate(-135.52 -56.69)"/><path d="M393.41,162.83a.72.72,0,0,0-.63.7.44.44,0,0,0,.47.46.75.75,0,0,0,.73-.76c0-.6-.69-.88-1.29-.88a1.83,1.83,0,0,0-1.49,1.14,1.49,1.49,0,0,0-1.48-1.14c-1.47,0-2.24,1.89-2.24,2.2a.14.14,0,0,0,.15.13c.12,0,.15-.08.18-.14.48-1.6,1.45-1.9,1.86-1.9.65,0,.78.6.78,1a6.16,6.16,0,0,1-.26,1.34l-.49,2c-.21.86-.63,1.65-1.39,1.65a1.42,1.42,0,0,1-.73-.19.75.75,0,0,0,.63-.7.45.45,0,0,0-.49-.46.75.75,0,0,0-.72.76c0,.6.68.87,1.29.87a1.77,1.77,0,0,0,1.48-1.13,1.51,1.51,0,0,0,1.49,1.13c1.46,0,2.23-1.88,2.23-2.19a.12.12,0,0,0-.14-.13c-.13,0-.14.07-.18.18-.39,1.27-1.23,1.86-1.87,1.86s-.78-.38-.78-1a6.63,6.63,0,0,1,.29-1.49l.5-2c.22-.87.71-1.5,1.37-1.5a1.53,1.53,0,0,1,.73.19" transform="translate(-135.52 -56.69)"/><path d="M397.4,168.75c0-.83-.27-1.45-.86-1.45a.68.68,0,0,0-.69.69.69.69,0,0,0,.7.7.65.65,0,0,0,.48-.19s0,0,.06,0a1,1,0,0,1,0,.28,3.4,3.4,0,0,1-.92,2.34c-.15.17-.15.2-.15.23a.15.15,0,0,0,.14.14,3.46,3.46,0,0,0,1.22-2.71" transform="translate(-135.52 -56.69)"/><path d="M404.68,170.3a2.12,2.12,0,0,1-1.65,1,1.07,1.07,0,0,1-1.08-.69.36.36,0,0,0,.14,0,.73.73,0,0,0,.72-.71.44.44,0,0,0-.49-.44.78.78,0,0,0-.73.88,1.3,1.3,0,0,0,1.44,1.23,3.79,3.79,0,0,0,3.29-2.92l1.4-5.6a.93.93,0,0,0,0-.24.37.37,0,0,0-.39-.36.58.58,0,0,0-.55.49l-1.06,4.22a.94.94,0,0,1-.19.45,1.85,1.85,0,0,1-1.45.89c-.8,0-.87-.79-.87-1.18a9.62,9.62,0,0,1,.77-3,2.46,2.46,0,0,0,.25-.91,1.12,1.12,0,0,0-1.14-1.15c-1.32,0-1.85,2.09-1.85,2.2a.14.14,0,0,0,.15.13c.13,0,.15-.06.21-.26.34-1.2.89-1.78,1.45-1.78.13,0,.37,0,.37.48a4,4,0,0,1-.37,1.33,7.12,7.12,0,0,0-.71,2.7,1.55,1.55,0,0,0,1.7,1.68,1.9,1.9,0,0,0,1.43-.66l0,0a5.54,5.54,0,0,1-.86,2.11" transform="translate(-135.52 -56.69)"/><path d="M412.25,165.11a10.62,10.62,0,0,0-.95-4.54,6.11,6.11,0,0,0-2.18-2.65.12.12,0,0,0-.13.11s0,.07.24.32c1.44,1.45,2.24,3.82,2.24,6.75s-.67,5.19-2.34,6.88c-.14.13-.14.16-.14.2a.12.12,0,0,0,.13.12,6.08,6.08,0,0,0,2.07-2.45,10.34,10.34,0,0,0,1.06-4.74" transform="translate(-135.52 -56.69)"/><path d="M335.54,188.28c0-.33,0-.34-.29-.34a3.22,3.22,0,0,1-2.54.92v.41a4.12,4.12,0,0,0,1.83-.37v7.48c0,.52,0,.69-1.3.69h-.45v.42c.39,0,1.78,0,2.26,0s1.85,0,2.24,0v-.42h-.45c-1.26,0-1.3-.17-1.3-.69v-8.1" transform="translate(-135.52 -56.69)"/><path d="M147.87,225.68s0-.07-.25-.31c-1.43-1.46-2.24-3.83-2.24-6.76a9.51,9.51,0,0,1,2.34-6.88c.15-.13.15-.16.15-.2a.12.12,0,0,0-.13-.11,6,6,0,0,0-2.07,2.44,10.26,10.26,0,0,0-1.06,4.75,10.57,10.57,0,0,0,.95,4.53,6.1,6.1,0,0,0,2.18,2.66.12.12,0,0,0,.13-.12" transform="translate(-135.52 -56.69)"/><path d="M158.17,218.89c.24,0,.5,0,.5-.29s-.26-.29-.5-.29h-7.78c-.24,0-.5,0-.5.29s.26.29.5.29h7.78" transform="translate(-135.52 -56.69)"/><path d="M163.94,213c0-.33,0-.34-.29-.34a3.22,3.22,0,0,1-2.54.92V214a4.12,4.12,0,0,0,1.83-.37v7.48c0,.52,0,.69-1.3.69h-.45v.42c.39,0,1.78,0,2.26,0s1.85,0,2.24,0v-.42h-.45c-1.26,0-1.3-.17-1.3-.69V213" transform="translate(-135.52 -56.69)"/><path d="M169.6,222.25c0-.83-.27-1.45-.86-1.45a.68.68,0,0,0-.69.69.69.69,0,0,0,.7.7.65.65,0,0,0,.48-.19s0,0,.06,0a1,1,0,0,1,0,.28,3.4,3.4,0,0,1-.92,2.34c-.15.17-.15.2-.15.23a.15.15,0,0,0,.14.14,3.46,3.46,0,0,0,1.22-2.71" transform="translate(-135.52 -56.69)"/><path d="M176.6,222.2c-.46,0-1.39-.25-1.66-1.82a17.46,17.46,0,0,1-.16-3,12.58,12.58,0,0,1,.23-3.09,1.63,1.63,0,0,1,3.25.16,15.17,15.17,0,0,1,.18,2.93,18.67,18.67,0,0,1-.15,2.93c-.28,1.58-1.18,1.85-1.69,1.85m2.94-4.61a7.91,7.91,0,0,0-.59-3.44,2.57,2.57,0,0,0-4.72.1,7.62,7.62,0,0,0-.54,3.34,7.24,7.24,0,0,0,.62,3.47,2.55,2.55,0,0,0,2.29,1.43,2.59,2.59,0,0,0,2.39-1.58A8,8,0,0,0,179.54,217.59Z" transform="translate(-135.52 -56.69)"/><path d="M184.25,218.61a10.62,10.62,0,0,0-.95-4.54,6,6,0,0,0-2.18-2.65.12.12,0,0,0-.13.11s0,.07.24.32c1.44,1.45,2.24,3.82,2.24,6.75s-.67,5.19-2.34,6.88c-.14.13-.14.16-.14.2a.12.12,0,0,0,.13.12,6.08,6.08,0,0,0,2.07-2.45,10.34,10.34,0,0,0,1.06-4.74" transform="translate(-135.52 -56.69)"/><path d="M399.47,225.68s0-.07-.25-.31c-1.43-1.46-2.24-3.83-2.24-6.76a9.51,9.51,0,0,1,2.34-6.88c.15-.13.15-.16.15-.2a.12.12,0,0,0-.13-.11,5.94,5.94,0,0,0-2.07,2.44,10.26,10.26,0,0,0-1.06,4.75,10.57,10.57,0,0,0,1,4.53,6.1,6.1,0,0,0,2.18,2.66.12.12,0,0,0,.13-.12" transform="translate(-135.52 -56.69)"/><path d="M404.34,213c0-.33,0-.34-.29-.34a3.22,3.22,0,0,1-2.54.92V214a4.12,4.12,0,0,0,1.83-.37v7.48c0,.52,0,.69-1.3.69h-.45v.42c.39,0,1.79,0,2.26,0s1.85,0,2.24,0v-.42h-.45c-1.26,0-1.3-.17-1.3-.69V213" transform="translate(-135.52 -56.69)"/><path d="M410.1,222.25c0-.83-.27-1.45-.86-1.45a.68.68,0,0,0-.69.69.69.69,0,0,0,.7.7.65.65,0,0,0,.48-.19s0,0,.06,0a1,1,0,0,1,0,.28,3.4,3.4,0,0,1-.92,2.34c-.15.17-.15.2-.15.23a.15.15,0,0,0,.14.14,3.46,3.46,0,0,0,1.22-2.71" transform="translate(-135.52 -56.69)"/><path d="M417,222.2c-.45,0-1.39-.25-1.66-1.82a17.46,17.46,0,0,1-.16-3,12.58,12.58,0,0,1,.23-3.09,1.72,1.72,0,0,1,1.59-1.41,1.75,1.75,0,0,1,1.66,1.57,15.17,15.17,0,0,1,.18,2.93,18.67,18.67,0,0,1-.15,2.93c-.28,1.58-1.18,1.85-1.69,1.85m2.94-4.61a7.91,7.91,0,0,0-.59-3.44,2.57,2.57,0,0,0-4.72.1,7.62,7.62,0,0,0-.54,3.34,7.24,7.24,0,0,0,.62,3.47,2.55,2.55,0,0,0,2.29,1.43,2.59,2.59,0,0,0,2.39-1.58A8,8,0,0,0,419.94,217.59Z" transform="translate(-135.52 -56.69)"/><path d="M424.65,218.61a10.62,10.62,0,0,0-.95-4.54,6.11,6.11,0,0,0-2.18-2.65.12.12,0,0,0-.13.11s0,.07.24.32c1.44,1.45,2.25,3.82,2.25,6.75s-.68,5.19-2.35,6.88c-.14.13-.14.16-.14.2a.12.12,0,0,0,.13.12,6.08,6.08,0,0,0,2.07-2.45,10.34,10.34,0,0,0,1.06-4.74" transform="translate(-135.52 -56.69)"/><rect class="cls-2" x="130.27" y="277.16" width="49.07" height="20.99"/><path d="M273.77,351.38s0-.07-.25-.31c-1.43-1.46-2.24-3.83-2.24-6.76a9.51,9.51,0,0,1,2.34-6.88c.15-.13.15-.16.15-.2s-.07-.11-.13-.11a5.94,5.94,0,0,0-2.07,2.44,10.26,10.26,0,0,0-1.06,4.75,10.57,10.57,0,0,0,.95,4.53,6.1,6.1,0,0,0,2.18,2.66.12.12,0,0,0,.13-.12" transform="translate(-135.52 -56.69)"/><path d="M278.1,347.9c-.46,0-1.39-.25-1.66-1.82a17.46,17.46,0,0,1-.16-3,12.58,12.58,0,0,1,.23-3.09,1.63,1.63,0,0,1,3.25.16,15.17,15.17,0,0,1,.18,2.93,18.67,18.67,0,0,1-.15,2.93c-.28,1.58-1.18,1.85-1.69,1.85m2.94-4.61a7.91,7.91,0,0,0-.59-3.44,2.57,2.57,0,0,0-4.72.1,7.62,7.62,0,0,0-.54,3.34,7.24,7.24,0,0,0,.62,3.47,2.55,2.55,0,0,0,2.29,1.43,2.57,2.57,0,0,0,2.39-1.58A8,8,0,0,0,281,343.29Z" transform="translate(-135.52 -56.69)"/><path d="M284.4,348c0-.83-.27-1.45-.86-1.45a.68.68,0,0,0-.69.69.69.69,0,0,0,.7.7.65.65,0,0,0,.48-.19s0,0,.06,0a1,1,0,0,1,0,.28,3.4,3.4,0,0,1-.92,2.34c-.15.17-.15.2-.15.23a.15.15,0,0,0,.14.14A3.46,3.46,0,0,0,284.4,348" transform="translate(-135.52 -56.69)"/><path d="M297.37,344.59c.24,0,.5,0,.5-.29s-.26-.29-.5-.29h-7.78c-.24,0-.5,0-.5.29s.26.29.5.29h7.78" transform="translate(-135.52 -56.69)"/><path d="M303.24,338.68c0-.33,0-.34-.29-.34a3.22,3.22,0,0,1-2.54.92v.41a4.12,4.12,0,0,0,1.83-.37v7.48c0,.52,0,.69-1.3.69h-.45v.42c.39,0,1.78,0,2.26,0s1.85,0,2.24,0v-.42h-.45c-1.26,0-1.3-.17-1.3-.69v-8.1" transform="translate(-135.52 -56.69)"/><path d="M310.15,344.31a10.62,10.62,0,0,0-.95-4.54,6.11,6.11,0,0,0-2.18-2.65c-.06,0-.13,0-.13.11s0,.07.24.32c1.44,1.45,2.25,3.82,2.25,6.75s-.68,5.19-2.35,6.88c-.14.13-.14.16-.14.2a.12.12,0,0,0,.13.12,6.08,6.08,0,0,0,2.07-2.45,10.34,10.34,0,0,0,1.06-4.74" transform="translate(-135.52 -56.69)"/><rect class="cls-2" x="135.85" y="42.67" width="37.91" height="20.99"/><path d="M279.37,117s0-.07-.25-.31c-1.43-1.46-2.24-3.83-2.24-6.76a9.51,9.51,0,0,1,2.34-6.88c.15-.13.15-.16.15-.2s-.07-.11-.13-.11a6,6,0,0,0-2.07,2.44,10.26,10.26,0,0,0-1.06,4.75,10.57,10.57,0,0,0,.95,4.53,6.1,6.1,0,0,0,2.18,2.66.12.12,0,0,0,.13-.12" transform="translate(-135.52 -56.69)"/><path d="M283.7,113.5c-.46,0-1.39-.25-1.66-1.82a17.46,17.46,0,0,1-.16-3,12.58,12.58,0,0,1,.23-3.09,1.72,1.72,0,0,1,1.59-1.41,1.75,1.75,0,0,1,1.66,1.57,15.17,15.17,0,0,1,.18,2.93,18.67,18.67,0,0,1-.15,2.93c-.28,1.58-1.18,1.85-1.69,1.85m2.94-4.61a7.91,7.91,0,0,0-.59-3.44,2.57,2.57,0,0,0-4.72.1,7.62,7.62,0,0,0-.54,3.34,7.24,7.24,0,0,0,.62,3.47,2.55,2.55,0,0,0,2.29,1.43,2.57,2.57,0,0,0,2.39-1.58A8,8,0,0,0,286.64,108.89Z" transform="translate(-135.52 -56.69)"/><path d="M290,113.55c0-.83-.27-1.45-.86-1.45a.68.68,0,0,0-.69.69.69.69,0,0,0,.7.7.65.65,0,0,0,.48-.19s0,0,.06,0a1,1,0,0,1,0,.28,3.4,3.4,0,0,1-.92,2.34c-.15.17-.15.2-.15.23a.15.15,0,0,0,.14.14,3.46,3.46,0,0,0,1.22-2.71" transform="translate(-135.52 -56.69)"/><path d="M297.64,104.28c0-.33,0-.34-.29-.34a3.2,3.2,0,0,1-2.54.92v.41a4.12,4.12,0,0,0,1.83-.37v7.48c0,.52,0,.69-1.3.69h-.45v.42c.39,0,1.78,0,2.26,0s1.85,0,2.24,0v-.42h-.45c-1.26,0-1.3-.17-1.3-.69v-8.1" transform="translate(-135.52 -56.69)"/><path d="M304.55,109.91a10.62,10.62,0,0,0-.95-4.54,6,6,0,0,0-2.18-2.65c-.06,0-.13,0-.13.11s0,.07.24.32c1.44,1.45,2.24,3.82,2.24,6.75s-.67,5.19-2.34,6.88c-.14.13-.14.16-.14.2a.12.12,0,0,0,.13.12,6.08,6.08,0,0,0,2.07-2.45,10.34,10.34,0,0,0,1.06-4.74" transform="translate(-135.52 -56.69)"/><line class="cls-4" x1="183.95" y1="160.1" x2="183.95" y2="160.1"/></svg>