<svg id="Layer_1" data-name="Layer 1" xmlns="http://www.w3.org/2000/svg" viewBox="0 0 332.32 332.85"><defs><style>.cls-1{fill:#41bfb3;opacity:0.2;}.cls-1,.cls-2,.cls-4{stroke:#000;stroke-linecap:round;stroke-miterlimit:10;}.cls-1,.cls-2{stroke-width:0.4px;}.cls-2,.cls-4{fill:none;}.cls-3{fill:#fff;}.cls-4{stroke-width:0.8px;}</style></defs><title>CosAndSin.03</title><path class="cls-1" d="M323.43,229.55a32,32,0,0,0-4.28-16l-27.68,16" transform="translate(-131.48 -56.69)"/><path class="cls-2" d="M291.47,229.55" transform="translate(-131.48 -56.69)"/><path class="cls-2" d="M323.43,229.55a32,32,0,0,0-4.28-16" transform="translate(-131.48 -56.69)"/><line class="cls-2" x1="0.2" y1="172.86" x2="316.19" y2="172.86"/><path d="M451.26,229.55a14.33,14.33,0,0,1-4-1.5v3a14.6,14.6,0,0,1,4-1.49" transform="translate(-131.48 -56.69)"/><rect class="cls-3" x="319.98" y="167.39" width="12.34" height="10.93"/><path d="M458.12,228.69c.06-.26.29-1.17,1-1.17a1,1,0,0,1,.5.13.58.58,0,0,0-.48.53.35.35,0,0,0,.38.35A.55.55,0,0,0,460,228c0-.52-.58-.66-.92-.66a1.29,1.29,0,0,0-1,.75,1.11,1.11,0,0,0-1.07-.75c-1,0-1.6,1.28-1.6,1.53,0,.1.1.1.12.1s.1,0,.12-.11c.34-1,1-1.3,1.34-1.3.18,0,.53.09.53.66a15,15,0,0,1-.53,2.37c-.16.61-.51,1-1,1a1,1,0,0,1-.5-.13.56.56,0,0,0,.47-.53.34.34,0,0,0-.37-.35.56.56,0,0,0-.54.57c0,.46.49.66.93.66.66,0,1-.7,1.05-.75a1.09,1.09,0,0,0,1.07.75c1,0,1.59-1.28,1.59-1.53s-.09-.1-.12-.1-.11,0-.13.11c-.33,1.06-1,1.3-1.32,1.3s-.55-.32-.55-.66a3.94,3.94,0,0,1,.17-.87l.34-1.36" transform="translate(-131.48 -56.69)"/><line class="cls-2" x1="159.99" y1="332.65" x2="159.99" y2="16.65"/><path d="M291.47,69.76a14.6,14.6,0,0,1-1.49,4h3a14.6,14.6,0,0,1-1.49-4" transform="translate(-131.48 -56.69)"/><rect class="cls-3" x="154.05" width="11.88" height="12.87"/><path d="M293.63,60.51a.63.63,0,0,0,0-.23.27.27,0,0,0-.29-.27.43.43,0,0,0-.35.21c0,.05-.1.35-.14.53s-.14.53-.2.8l-.44,1.79a1.38,1.38,0,0,1-1.13.84c-.5,0-.61-.44-.61-.8a5.86,5.86,0,0,1,.51-2,1.92,1.92,0,0,0,.19-.72.79.79,0,0,0-.81-.81c-.94,0-1.31,1.44-1.31,1.53s.1.1.12.1.11,0,.16-.18c.26-.93.66-1.23,1-1.23.08,0,.25,0,.25.32a2.12,2.12,0,0,1-.17.69,6.5,6.5,0,0,0-.58,2.09,1.11,1.11,0,0,0,1.21,1.18,1.41,1.41,0,0,0,1-.45,3.75,3.75,0,0,1-.65,1.53,1.41,1.41,0,0,1-1.09.63.81.81,0,0,1-.76-.42.57.57,0,0,0,.43-.12.54.54,0,0,0,.2-.41.34.34,0,0,0-.37-.34.57.57,0,0,0-.55.64.94.94,0,0,0,1.05.87,2.63,2.63,0,0,0,2.32-2l1-3.79" transform="translate(-131.48 -56.69)"/><circle class="cls-4" cx="159.99" cy="172.86" r="106.53"/><line class="cls-2" x1="106.73" y1="170.99" x2="106.73" y2="174.73"/><path d="M235.13,237.3c.11,0,.28,0,.28-.17s-.16-.17-.28-.17h-4.19c-.11,0-.28,0-.28.17s.16.17.28.17h4.19" transform="translate(-131.48 -56.69)"/><path d="M238.2,238.83a.91.91,0,0,1-.9-.76,8,8,0,0,1-.09-1.51,6.38,6.38,0,0,1,.1-1.44.91.91,0,0,1,1.76-.06,5.85,5.85,0,0,1,.12,1.5,7.75,7.75,0,0,1-.09,1.48.92.92,0,0,1-.9.79m1.63-2.18a3.06,3.06,0,0,0-.42-1.82,1.44,1.44,0,0,0-1.21-.61c-1.63,0-1.63,1.92-1.63,2.43s0,2.38,1.63,2.38S239.83,237.15,239.83,236.65Z" transform="translate(-131.48 -56.69)"/><path d="M241.69,238.49a.41.41,0,0,0-.4-.41.41.41,0,1,0,.4.41" transform="translate(-131.48 -56.69)"/><path d="M243.59,235a2.57,2.57,0,0,0,.68.09,1.67,1.67,0,0,0,1.48-.74c0-.08-.05-.1-.09-.1l0,0a2.74,2.74,0,0,1-1.07.21,2.93,2.93,0,0,1-1-.19l-.09,0c-.09,0-.09.08-.09.19v2.08c0,.12,0,.2.11.2s.07,0,.14-.1a1.19,1.19,0,0,1,1-.44.75.75,0,0,1,.64.39,1.78,1.78,0,0,1,.17.91,1.67,1.67,0,0,1-.21.93,1,1,0,0,1-.82.43,1.18,1.18,0,0,1-1.11-.72.34.34,0,0,0,.4-.35.33.33,0,0,0-.35-.35.35.35,0,0,0-.35.38,1.35,1.35,0,0,0,1.42,1.26,1.63,1.63,0,0,0,1.69-1.55,1.5,1.5,0,0,0-1.48-1.53,1.46,1.46,0,0,0-1,.35V235" transform="translate(-131.48 -56.69)"/><line class="cls-2" x1="213.25" y1="170.99" x2="213.25" y2="174.73"/><path d="M341.6,239.23a.91.91,0,0,1-.9-.76,7.18,7.18,0,0,1-.1-1.51,5.81,5.81,0,0,1,.11-1.44.91.91,0,0,1,1.76-.06,5.85,5.85,0,0,1,.12,1.5,7.75,7.75,0,0,1-.09,1.48.92.92,0,0,1-.9.79m1.63-2.18a3.06,3.06,0,0,0-.42-1.82,1.44,1.44,0,0,0-1.21-.61c-1.63,0-1.63,1.92-1.63,2.43s0,2.38,1.63,2.38S343.23,237.55,343.23,237.05Z" transform="translate(-131.48 -56.69)"/><path d="M345.19,238.89a.41.41,0,0,0-.4-.41.41.41,0,1,0,.4.41" transform="translate(-131.48 -56.69)"/><path d="M347,235.37a2.57,2.57,0,0,0,.68.09,1.67,1.67,0,0,0,1.48-.74c0-.08,0-.1-.09-.1l-.05,0a2.74,2.74,0,0,1-1.07.21,2.93,2.93,0,0,1-1-.19l-.09,0c-.09,0-.09.08-.09.19v2.08c0,.12,0,.2.11.2s.07,0,.14-.1a1.19,1.19,0,0,1,1-.44.75.75,0,0,1,.64.39,1.78,1.78,0,0,1,.17.91,1.67,1.67,0,0,1-.21.93,1,1,0,0,1-.82.43,1.18,1.18,0,0,1-1.11-.72.34.34,0,0,0,.4-.34.34.34,0,0,0-.35-.36.35.35,0,0,0-.35.38,1.35,1.35,0,0,0,1.42,1.26,1.63,1.63,0,0,0,1.69-1.55,1.5,1.5,0,0,0-1.48-1.53,1.46,1.46,0,0,0-1,.35v-1.33" transform="translate(-131.48 -56.69)"/><line class="cls-2" x1="64.12" y1="172.11" x2="64.12" y2="173.61"/><line class="cls-2" x1="74.77" y1="172.11" x2="74.77" y2="173.61"/><line class="cls-2" x1="85.42" y1="172.11" x2="85.42" y2="173.61"/><line class="cls-2" x1="96.07" y1="172.11" x2="96.07" y2="173.61"/><line class="cls-2" x1="117.38" y1="172.11" x2="117.38" y2="173.61"/><line class="cls-2" x1="128.03" y1="172.11" x2="128.03" y2="173.61"/><line class="cls-2" x1="138.69" y1="172.11" x2="138.69" y2="173.61"/><line class="cls-2" x1="149.34" y1="172.11" x2="149.34" y2="173.61"/><line class="cls-2" x1="255.86" y1="172.11" x2="255.86" y2="173.61"/><line class="cls-2" x1="245.21" y1="172.11" x2="245.21" y2="173.61"/><line class="cls-2" x1="234.56" y1="172.11" x2="234.56" y2="173.61"/><line class="cls-2" x1="223.91" y1="172.11" x2="223.91" y2="173.61"/><line class="cls-2" x1="202.6" y1="172.11" x2="202.6" y2="173.61"/><line class="cls-2" x1="191.95" y1="172.11" x2="191.95" y2="173.61"/><line class="cls-2" x1="181.3" y1="172.11" x2="181.3" y2="173.61"/><line class="cls-2" x1="170.64" y1="172.11" x2="170.64" y2="173.61"/><line class="cls-2" x1="161.86" y1="226.12" x2="158.12" y2="226.12"/><path d="M297.93,283.1c.11,0,.28,0,.28-.17s-.16-.17-.28-.17h-4.19c-.11,0-.28,0-.28.17s.16.17.28.17h4.19" transform="translate(-131.48 -56.69)"/><path d="M300.9,284.63a.91.91,0,0,1-.9-.76,7.18,7.18,0,0,1-.1-1.51,5.81,5.81,0,0,1,.11-1.44.91.91,0,0,1,1.76-.06,5.81,5.81,0,0,1,.12,1.5,7.75,7.75,0,0,1-.09,1.48.92.92,0,0,1-.9.79m1.63-2.18a3.06,3.06,0,0,0-.42-1.82,1.44,1.44,0,0,0-1.21-.61c-1.63,0-1.63,1.92-1.63,2.43s0,2.38,1.63,2.38S302.53,283,302.53,282.45Z" transform="translate(-131.48 -56.69)"/><path d="M304.49,284.29a.41.41,0,0,0-.4-.41.41.41,0,1,0,.4.41" transform="translate(-131.48 -56.69)"/><path d="M306.29,280.77a2.57,2.57,0,0,0,.68.09,1.67,1.67,0,0,0,1.48-.74c0-.08-.05-.1-.09-.1l-.05,0a2.74,2.74,0,0,1-1.07.21,2.93,2.93,0,0,1-1-.19l-.09,0c-.09,0-.09.08-.09.19v2.08c0,.12,0,.2.11.2s.07,0,.14-.1a1.19,1.19,0,0,1,1-.44.75.75,0,0,1,.64.39,1.78,1.78,0,0,1,.17.91,1.67,1.67,0,0,1-.21.93,1,1,0,0,1-.82.43,1.18,1.18,0,0,1-1.11-.72.34.34,0,0,0,.4-.34.34.34,0,0,0-.35-.36.35.35,0,0,0-.35.38,1.35,1.35,0,0,0,1.42,1.26,1.63,1.63,0,0,0,1.69-1.55,1.5,1.5,0,0,0-1.48-1.53,1.46,1.46,0,0,0-1,.35v-1.33" transform="translate(-131.48 -56.69)"/><line class="cls-2" x1="161.86" y1="119.59" x2="158.12" y2="119.59"/><path d="M297.8,178.43a.92.92,0,0,1-.9-.76,7.18,7.18,0,0,1-.1-1.51,5.81,5.81,0,0,1,.11-1.44.91.91,0,0,1,1.76-.06,5.85,5.85,0,0,1,.12,1.5,7.75,7.75,0,0,1-.09,1.48.92.92,0,0,1-.9.79m1.63-2.18a3.06,3.06,0,0,0-.42-1.82,1.44,1.44,0,0,0-1.21-.61c-1.63,0-1.63,1.92-1.63,2.43s0,2.38,1.63,2.38S299.43,176.75,299.43,176.25Z" transform="translate(-131.48 -56.69)"/><path d="M301.39,178.09a.41.41,0,0,0-.4-.41.41.41,0,1,0,.4.41" transform="translate(-131.48 -56.69)"/><path d="M303.19,174.57a2.57,2.57,0,0,0,.68.09,1.67,1.67,0,0,0,1.48-.74c0-.08-.05-.1-.09-.1l-.05,0a2.74,2.74,0,0,1-1.07.21,2.93,2.93,0,0,1-1-.19l-.09,0c-.09,0-.09.08-.09.19v2.08c0,.12,0,.2.11.2s.07,0,.14-.1a1.19,1.19,0,0,1,1-.44.75.75,0,0,1,.64.39,1.78,1.78,0,0,1,.17.91,1.67,1.67,0,0,1-.21.93,1,1,0,0,1-.82.43,1.18,1.18,0,0,1-1.11-.72.34.34,0,0,0,.4-.34.34.34,0,0,0-.35-.36.35.35,0,0,0-.35.38,1.35,1.35,0,0,0,1.42,1.26,1.63,1.63,0,0,0,1.69-1.55,1.5,1.5,0,0,0-1.48-1.53,1.46,1.46,0,0,0-1,.35v-1.33" transform="translate(-131.48 -56.69)"/><line class="cls-2" x1="160.74" y1="268.73" x2="159.24" y2="268.73"/><line class="cls-2" x1="160.74" y1="258.08" x2="159.24" y2="258.08"/><line class="cls-2" x1="160.74" y1="247.43" x2="159.24" y2="247.43"/><line class="cls-2" x1="160.74" y1="236.77" x2="159.24" y2="236.77"/><line class="cls-2" x1="160.74" y1="215.47" x2="159.24" y2="215.47"/><line class="cls-2" x1="160.74" y1="204.82" x2="159.24" y2="204.82"/><line class="cls-2" x1="160.74" y1="194.16" x2="159.24" y2="194.16"/><line class="cls-2" x1="160.74" y1="183.51" x2="159.24" y2="183.51"/><line class="cls-2" x1="160.74" y1="76.98" x2="159.24" y2="76.98"/><line class="cls-2" x1="160.74" y1="87.64" x2="159.24" y2="87.64"/><line class="cls-2" x1="160.74" y1="98.29" x2="159.24" y2="98.29"/><line class="cls-2" x1="160.74" y1="108.94" x2="159.24" y2="108.94"/><line class="cls-2" x1="160.74" y1="130.25" x2="159.24" y2="130.25"/><line class="cls-2" x1="160.74" y1="140.9" x2="159.24" y2="140.9"/><line class="cls-2" x1="160.74" y1="151.55" x2="159.24" y2="151.55"/><line class="cls-2" x1="160.74" y1="162.2" x2="159.24" y2="162.2"/><line class="cls-2" x1="159.99" y1="172.86" x2="252.25" y2="119.59"/><path d="M385.22,176.29a1.5,1.5,0,1,0-1.5,1.49A1.5,1.5,0,0,0,385.22,176.29Z" transform="translate(-131.48 -56.69)"/><path class="cls-2" d="M385.22,176.29a1.5,1.5,0,1,0-1.5,1.49A1.5,1.5,0,0,0,385.22,176.29Z" transform="translate(-131.48 -56.69)"/><path d="M313.76,223.9a8.87,8.87,0,0,1-.7,2c-.35.68-.72,1.16-1.15,1.16s-.54-.29-.54-1.21a7.6,7.6,0,0,1,.32-2h2.07m-2-.32a9.3,9.3,0,0,1,.76-2.13c.27-.49.64-1,1.09-1s.54.63.54,1.2a8.47,8.47,0,0,1-.31,2Zm3.05-1.36c0-.65-.18-2-1.19-2-1.38,0-2.91,2.8-2.91,5.07,0,.94.29,2,1.19,2C313.31,227.3,314.82,224.45,314.82,222.22Z" transform="translate(-131.48 -56.69)"/><path d="M389.69,172.67s0,0-.17-.21a6.61,6.61,0,0,1-1.56-4.65,6.5,6.5,0,0,1,1.6-4.7c.13-.12.13-.14.13-.17a.09.09,0,0,0-.1-.1,4.31,4.31,0,0,0-1.58,1.94,7.15,7.15,0,0,0-.63,3,7.23,7.23,0,0,0,.66,3.1,4.21,4.21,0,0,0,1.55,1.86.09.09,0,0,0,.1-.1" transform="translate(-131.48 -56.69)"/><path d="M393.62,167.29c.06-.26.29-1.17,1-1.17a1,1,0,0,1,.5.13.58.58,0,0,0-.48.53.35.35,0,0,0,.38.35.55.55,0,0,0,.53-.57c0-.52-.58-.66-.92-.66a1.29,1.29,0,0,0-1,.75,1.11,1.11,0,0,0-1.08-.75c-1,0-1.6,1.28-1.6,1.53,0,.1.1.1.13.1s.1,0,.12-.11c.34-1,1-1.3,1.33-1.3s.54.09.54.66a14.33,14.33,0,0,1-.54,2.37c-.15.61-.5,1-.94,1a1,1,0,0,1-.5-.13.56.56,0,0,0,.47-.53.34.34,0,0,0-.37-.35.56.56,0,0,0-.54.57c0,.46.49.66.93.66.66,0,1-.7,1.05-.75a1.09,1.09,0,0,0,1.07.75c1,0,1.59-1.28,1.59-1.53,0-.1-.09-.1-.12-.1s-.11,0-.13.11c-.33,1.06-1,1.3-1.32,1.3s-.55-.32-.55-.66a3.94,3.94,0,0,1,.17-.87l.34-1.36" transform="translate(-131.48 -56.69)"/><path d="M398,170.28c0-.66-.25-1-.64-1a.51.51,0,0,0-.53.52.53.53,0,0,0,.88.4l0,0s0,0,0,.15a2.39,2.39,0,0,1-.68,1.66c-.11.11-.11.13-.11.16a.1.1,0,0,0,.1.11,2.38,2.38,0,0,0,.91-1.93" transform="translate(-131.48 -56.69)"/><path d="M405.23,166.51a.63.63,0,0,0,0-.23A.27.27,0,0,0,405,166a.43.43,0,0,0-.35.21c0,.05-.1.35-.14.53s-.14.53-.2.8l-.44,1.79a1.38,1.38,0,0,1-1.13.84c-.5,0-.61-.44-.61-.8a5.86,5.86,0,0,1,.51-1.95,1.92,1.92,0,0,0,.19-.72.79.79,0,0,0-.81-.81c-.94,0-1.31,1.44-1.31,1.53s.1.1.12.1.11,0,.16-.18c.26-.93.66-1.23,1-1.23.08,0,.25,0,.25.32a2.12,2.12,0,0,1-.17.69,6.5,6.5,0,0,0-.58,2.09,1.11,1.11,0,0,0,1.21,1.18,1.41,1.41,0,0,0,1-.45,3.75,3.75,0,0,1-.65,1.53,1.41,1.41,0,0,1-1.09.63.81.81,0,0,1-.76-.42.57.57,0,0,0,.43-.12.54.54,0,0,0,.2-.41.34.34,0,0,0-.37-.34.57.57,0,0,0-.55.64.94.94,0,0,0,1.05.87,2.63,2.63,0,0,0,2.32-2l1-3.79" transform="translate(-131.48 -56.69)"/><path d="M408.57,167.81a7.3,7.3,0,0,0-.65-3.1,4.34,4.34,0,0,0-1.55-1.87.09.09,0,0,0-.1.1s0,.05.18.23a6.41,6.41,0,0,1,1.54,4.64,6.49,6.49,0,0,1-1.6,4.7c-.12.11-.12.14-.12.16a.09.09,0,0,0,.1.1,4.26,4.26,0,0,0,1.57-1.93,7.21,7.21,0,0,0,.63-3" transform="translate(-131.48 -56.69)"/><path d="M338,191.23c0-.24,0-.26-.23-.26a2.44,2.44,0,0,1-1.81.64v.31a3,3,0,0,0,1.31-.26v5.15c0,.35,0,.47-.93.47H336v.31c.35,0,1.22,0,1.61,0s1.26,0,1.61,0v-.31h-.32c-.89,0-.92-.11-.92-.47v-5.58" transform="translate(-131.48 -56.69)"/><path d="M153.49,225.87s0-.05-.17-.21a6.61,6.61,0,0,1-1.56-4.65,6.5,6.5,0,0,1,1.6-4.7c.13-.12.13-.14.13-.17a.09.09,0,0,0-.1-.1,4.31,4.31,0,0,0-1.58,1.94,7.15,7.15,0,0,0-.63,3,7.23,7.23,0,0,0,.66,3.1,4.21,4.21,0,0,0,1.55,1.86.09.09,0,0,0,.1-.1" transform="translate(-131.48 -56.69)"/><path d="M160.55,221.21c.17,0,.34,0,.34-.2s-.17-.2-.34-.2h-5.38c-.17,0-.35,0-.35.2s.18.2.35.2h5.38" transform="translate(-131.48 -56.69)"/><path d="M164.72,217.13c0-.23,0-.26-.23-.26a2.44,2.44,0,0,1-1.81.64v.31a3,3,0,0,0,1.31-.26v5.15c0,.35,0,.47-.93.47h-.32v.31c.35,0,1.22,0,1.61,0s1.26,0,1.61,0v-.31h-.32c-.89,0-.92-.11-.92-.47v-5.58" transform="translate(-131.48 -56.69)"/><path d="M168.82,223.48c0-.66-.25-1-.64-1a.51.51,0,0,0-.53.52.53.53,0,0,0,.88.4l.05,0s0,0,0,.15a2.39,2.39,0,0,1-.68,1.66c-.11.11-.11.13-.11.16a.1.1,0,0,0,.1.11,2.38,2.38,0,0,0,.91-1.93" transform="translate(-131.48 -56.69)"/><path d="M173.67,223.49c-.38,0-1-.25-1.15-1.2a13.5,13.5,0,0,1-.11-2.1,13.34,13.34,0,0,1,.08-1.83c.19-1.18.93-1.27,1.18-1.27s1,.18,1.17,1.17a12,12,0,0,1,.1,1.93,13.48,13.48,0,0,1-.1,2.06c-.15.94-.72,1.24-1.17,1.24m2.1-3.18a5.27,5.27,0,0,0-.4-2.32,1.83,1.83,0,0,0-1.69-1.12,1.81,1.81,0,0,0-1.72,1.19,5.26,5.26,0,0,0-.37,2.25,5.14,5.14,0,0,0,.44,2.4,1.86,1.86,0,0,0,3.37-.15A5.28,5.28,0,0,0,175.77,220.31Z" transform="translate(-131.48 -56.69)"/><path d="M179.07,221a7.3,7.3,0,0,0-.65-3.1,4.34,4.34,0,0,0-1.55-1.87.09.09,0,0,0-.1.1s0,.05.19.23a7.75,7.75,0,0,1-.07,9.34c-.12.11-.12.14-.12.16a.09.09,0,0,0,.1.1,4.26,4.26,0,0,0,1.57-1.93,7.21,7.21,0,0,0,.63-3" transform="translate(-131.48 -56.69)"/><path d="M407.19,225.87s0-.05-.17-.21a6.61,6.61,0,0,1-1.56-4.65,6.5,6.5,0,0,1,1.6-4.7c.13-.12.13-.14.13-.17a.09.09,0,0,0-.1-.1,4.31,4.31,0,0,0-1.58,1.94,7.15,7.15,0,0,0-.63,3,7.23,7.23,0,0,0,.66,3.1,4.21,4.21,0,0,0,1.55,1.86.09.09,0,0,0,.1-.1" transform="translate(-131.48 -56.69)"/><path d="M410.72,217.13c0-.23,0-.26-.23-.26a2.44,2.44,0,0,1-1.81.64v.31a3,3,0,0,0,1.31-.26v5.15c0,.35,0,.47-.93.47h-.32v.31c.35,0,1.22,0,1.61,0s1.26,0,1.61,0v-.31h-.32c-.89,0-.92-.11-.92-.47v-5.58" transform="translate(-131.48 -56.69)"/><path d="M414.82,223.48c0-.66-.25-1-.64-1a.51.51,0,0,0-.53.52.53.53,0,0,0,.88.4l.05,0s0,0,0,.15a2.39,2.39,0,0,1-.68,1.66c-.11.11-.11.13-.11.16a.1.1,0,0,0,.1.11,2.38,2.38,0,0,0,.91-1.93" transform="translate(-131.48 -56.69)"/><path d="M419.67,223.49c-.38,0-1-.25-1.15-1.2a13.5,13.5,0,0,1-.11-2.1,13.34,13.34,0,0,1,.08-1.83c.19-1.18.93-1.27,1.18-1.27s1,.18,1.18,1.17a12,12,0,0,1,.1,1.93,12.26,12.26,0,0,1-.11,2.06c-.15.94-.72,1.24-1.17,1.24m2.1-3.18a5.27,5.27,0,0,0-.4-2.32,1.84,1.84,0,0,0-3.42.07,5.41,5.41,0,0,0-.36,2.25,5.14,5.14,0,0,0,.44,2.4,1.86,1.86,0,0,0,3.37-.15A5.28,5.28,0,0,0,421.77,220.31Z" transform="translate(-131.48 -56.69)"/><path d="M425.07,221a7.3,7.3,0,0,0-.65-3.1,4.34,4.34,0,0,0-1.55-1.87.09.09,0,0,0-.1.1s0,.05.18.23A6.41,6.41,0,0,1,424.5,221a6.54,6.54,0,0,1-1.6,4.7c-.13.11-.13.14-.13.16a.09.09,0,0,0,.1.1,4.32,4.32,0,0,0,1.58-1.93,7.34,7.34,0,0,0,.62-3" transform="translate(-131.48 -56.69)"/><rect class="cls-3" x="141.73" y="285.26" width="36.53" height="16.6"/><path d="M279.79,355.07s0-.05-.17-.21a6.61,6.61,0,0,1-1.56-4.65,6.5,6.5,0,0,1,1.6-4.7c.13-.12.13-.14.13-.17a.09.09,0,0,0-.1-.1,4.31,4.31,0,0,0-1.58,1.94,7.15,7.15,0,0,0-.63,3,7.23,7.23,0,0,0,.66,3.1,4.21,4.21,0,0,0,1.55,1.86.09.09,0,0,0,.1-.1" transform="translate(-131.48 -56.69)"/><path d="M282.87,352.69c-.38,0-1-.25-1.15-1.2a13.5,13.5,0,0,1-.11-2.1,13.34,13.34,0,0,1,.08-1.83c.19-1.18.93-1.27,1.18-1.27s1,.18,1.17,1.17a12,12,0,0,1,.1,1.93,13.48,13.48,0,0,1-.1,2.06c-.15.94-.72,1.24-1.17,1.24m2.1-3.18a5.27,5.27,0,0,0-.4-2.32,1.84,1.84,0,0,0-3.42.07,5.41,5.41,0,0,0-.36,2.25,5.14,5.14,0,0,0,.44,2.4,1.86,1.86,0,0,0,3.37-.15A5.28,5.28,0,0,0,285,349.51Z" transform="translate(-131.48 -56.69)"/><path d="M287.42,352.68c0-.66-.25-1-.64-1a.5.5,0,0,0-.52.52.51.51,0,0,0,.52.53.53.53,0,0,0,.35-.13l.05,0s0,0,0,.15a2.39,2.39,0,0,1-.68,1.66c-.11.11-.11.13-.11.16a.1.1,0,0,0,.1.11,2.38,2.38,0,0,0,.91-1.93" transform="translate(-131.48 -56.69)"/><path d="M296.35,350.41c.17,0,.34,0,.34-.2s-.17-.2-.34-.2H291c-.17,0-.35,0-.35.2s.18.2.35.2h5.38" transform="translate(-131.48 -56.69)"/><path d="M300.52,346.33c0-.23,0-.26-.23-.26a2.44,2.44,0,0,1-1.81.64V347a3,3,0,0,0,1.31-.26v5.15c0,.35,0,.47-.93.47h-.32v.31c.35,0,1.22,0,1.61,0s1.26,0,1.61,0v-.31h-.32c-.89,0-.92-.11-.92-.47v-5.58" transform="translate(-131.48 -56.69)"/><path d="M305.37,350.21a7.3,7.3,0,0,0-.65-3.1,4.34,4.34,0,0,0-1.55-1.87.09.09,0,0,0-.1.1s0,.05.19.23a7.75,7.75,0,0,1-.07,9.34c-.12.11-.12.14-.12.16a.09.09,0,0,0,.1.1,4.26,4.26,0,0,0,1.57-1.93,7.21,7.21,0,0,0,.63-3" transform="translate(-131.48 -56.69)"/><rect class="cls-3" x="145.6" y="43.86" width="28.78" height="16.6"/><path d="M283.69,113.77s0,0-.17-.21a6.61,6.61,0,0,1-1.56-4.65,6.5,6.5,0,0,1,1.6-4.7c.13-.12.13-.14.13-.17a.09.09,0,0,0-.1-.1,4.31,4.31,0,0,0-1.58,1.94,7.15,7.15,0,0,0-.63,3A7.23,7.23,0,0,0,282,112a4.21,4.21,0,0,0,1.55,1.86.09.09,0,0,0,.1-.1" transform="translate(-131.48 -56.69)"/><path d="M286.77,111.39c-.38,0-1-.25-1.15-1.2a13.5,13.5,0,0,1-.11-2.1,13.34,13.34,0,0,1,.08-1.83c.19-1.18.93-1.27,1.18-1.27s1,.18,1.17,1.17a12,12,0,0,1,.1,1.93,13.48,13.48,0,0,1-.1,2.06c-.15.94-.72,1.24-1.17,1.24m2.1-3.18a5.27,5.27,0,0,0-.4-2.32,1.84,1.84,0,0,0-3.42.07,5.41,5.41,0,0,0-.36,2.25,5.14,5.14,0,0,0,.44,2.4,1.86,1.86,0,0,0,3.37-.15A5.28,5.28,0,0,0,288.87,108.21Z" transform="translate(-131.48 -56.69)"/><path d="M291.32,111.38c0-.66-.25-1-.64-1a.51.51,0,0,0-.53.52.53.53,0,0,0,.88.4l.05,0s0,0,0,.15a2.39,2.39,0,0,1-.68,1.66c-.11.11-.11.13-.11.16a.1.1,0,0,0,.1.11,2.38,2.38,0,0,0,.91-1.93" transform="translate(-131.48 -56.69)"/><path d="M296.62,105c0-.23,0-.26-.23-.26a2.44,2.44,0,0,1-1.81.64v.31a3,3,0,0,0,1.31-.26v5.15c0,.35,0,.47-.93.47h-.32v.31c.35,0,1.22,0,1.61,0s1.26,0,1.61,0v-.31h-.32c-.89,0-.92-.11-.92-.47V105" transform="translate(-131.48 -56.69)"/><path d="M301.57,108.91a7.3,7.3,0,0,0-.65-3.1,4.34,4.34,0,0,0-1.55-1.87.09.09,0,0,0-.1.1s0,0,.18.23a6.41,6.41,0,0,1,1.54,4.64,6.49,6.49,0,0,1-1.6,4.7c-.12.11-.12.13-.12.16a.09.09,0,0,0,.1.1,4.26,4.26,0,0,0,1.57-1.93,7.21,7.21,0,0,0,.63-3" transform="translate(-131.48 -56.69)"/></svg>