<svg id="Layer_1" data-name="Layer 1" xmlns="http://www.w3.org/2000/svg" viewBox="0 0 211.56 210.8"><defs><style>.cls-1,.cls-2{fill:none;stroke:#000;stroke-linecap:round;stroke-miterlimit:10;}.cls-1{stroke-width:0.79px;}.cls-2{stroke-width:0.8px;}</style></defs><title>CosAndSine.01</title><path class="cls-1" d="M48.17,207.08A39.66,39.66,0,0,0,36.54,179" transform="translate(-6.95 -7.69)"/><polygon class="cls-2" points="0.96 199.39 199.39 199.39 199.39 0.96 0.96 199.39"/><path d="M33.7,197.27a8.82,8.82,0,0,1-.7,2c-.35.68-.72,1.16-1.15,1.16s-.54-.28-.54-1.21a7.48,7.48,0,0,1,.32-2H33.7m-2-.32a9.36,9.36,0,0,1,.76-2.14c.27-.48.64-1,1.09-1s.54.64.54,1.2a8.61,8.61,0,0,1-.31,2Zm3-1.36c0-.66-.18-2-1.19-2-1.38,0-2.91,2.8-2.91,5.08,0,.93.28,2,1.19,2C33.25,200.66,34.76,197.81,34.76,195.59Z" transform="translate(-6.95 -7.69)"/><polyline class="cls-1" points="185.5 199.39 185.5 185.5 199.39 185.5"/><path d="M111.1,215.27a.65.65,0,0,1-.2.37,1.55,1.55,0,0,1-1.12.7c-.5,0-.64-.54-.64-.93a7.28,7.28,0,0,1,.55-2.18,1.54,1.54,0,0,1,1.15-.95c.65,0,.79.82.79.88a.76.76,0,0,1,0,.16l-.5,2m.64-2.57a1,1,0,0,0-.91-.64c-1.16,0-2.39,1.46-2.39,2.91,0,.94.54,1.59,1.32,1.59a1.68,1.68,0,0,0,1.29-.74.91.91,0,0,0,.9.74.84.84,0,0,0,.74-.54,5.17,5.17,0,0,0,.3-1c0-.1-.09-.1-.12-.1s-.11,0-.14.18c-.17.65-.35,1.23-.76,1.23s-.29-.25-.29-.45a2.54,2.54,0,0,1,.13-.74l.21-.89.36-1.39a1.42,1.42,0,0,0,.07-.34.26.26,0,0,0-.29-.27A.46.46,0,0,0,111.74,212.7Z" transform="translate(-6.95 -7.69)"/><path d="M116.4,215.27a.65.65,0,0,1-.2.37,1.55,1.55,0,0,1-1.12.7c-.5,0-.64-.54-.64-.93a7.28,7.28,0,0,1,.55-2.18,1.54,1.54,0,0,1,1.15-.95c.65,0,.79.82.79.88a.76.76,0,0,1,0,.16l-.5,2m2.07-5.6s0-.11-.13-.11-1.1.09-1.27.11-.14.06-.14.19.1.12.24.12c.48,0,.5.07.5.17l0,.19-.6,2.36a1,1,0,0,0-.91-.64c-1.16,0-2.39,1.46-2.39,2.91,0,.94.54,1.59,1.32,1.59a1.68,1.68,0,0,0,1.29-.74.91.91,0,0,0,.9.74A.84.84,0,0,0,118,216a5.17,5.17,0,0,0,.3-1c0-.1-.09-.1-.12-.1s-.11,0-.14.18c-.17.65-.35,1.23-.76,1.23-.26,0-.29-.25-.29-.45a2.08,2.08,0,0,1,0-.48Z" transform="translate(-6.95 -7.69)"/><path d="M119.39,217c-.19.76-.67,1.32-1.23,1.32a.82.82,0,0,1-.38-.09.56.56,0,0,0,.44-.52.35.35,0,0,0-.37-.35.55.55,0,0,0-.54.56c0,.4.4.62.87.62a2,2,0,0,0,1.87-1.51l.92-3.64a1.42,1.42,0,0,0,0-.36.89.89,0,0,0-.92-.92c-1,0-1.58,1.44-1.58,1.53s.1.1.12.1.1,0,.18-.2c.25-.6.71-1.21,1.25-1.21.14,0,.32,0,.32.46a1.85,1.85,0,0,1-.07.51l-.93,3.7m2-6.7a.35.35,0,0,0-.37-.36.57.57,0,0,0-.53.52.35.35,0,0,0,.37.36A.57.57,0,0,0,121.38,210.25Z" transform="translate(-6.95 -7.69)"/><path d="M125.1,215.27a.65.65,0,0,1-.2.37,1.55,1.55,0,0,1-1.12.7c-.5,0-.64-.54-.64-.93a7.28,7.28,0,0,1,.55-2.18,1.54,1.54,0,0,1,1.15-.95c.65,0,.79.82.79.88a.76.76,0,0,1,0,.16l-.5,2m.64-2.57a1,1,0,0,0-.91-.64c-1.16,0-2.39,1.46-2.39,2.91,0,.94.54,1.59,1.32,1.59a1.68,1.68,0,0,0,1.29-.74.91.91,0,0,0,.9.74.84.84,0,0,0,.74-.54,5.17,5.17,0,0,0,.3-1c0-.1-.09-.1-.12-.1s-.11,0-.14.18c-.17.65-.35,1.23-.76,1.23s-.29-.25-.29-.45a2.54,2.54,0,0,1,.13-.74l.21-.89.36-1.39a1.42,1.42,0,0,0,.07-.34.26.26,0,0,0-.29-.27A.46.46,0,0,0,125.74,212.7Z" transform="translate(-6.95 -7.69)"/><path d="M131.27,212.68a.51.51,0,0,0-.43.14.54.54,0,0,0-.18.39.34.34,0,0,0,.37.34.58.58,0,0,0,.55-.63c0-.49-.47-.86-1.17-.86a3,3,0,0,0-2.66,2.82,1.57,1.57,0,0,0,1.61,1.68,2.64,2.64,0,0,0,2.25-1.17.14.14,0,0,0-.12-.13c-.05,0-.07,0-.13.1a2.58,2.58,0,0,1-2,1c-.63,0-.9-.48-.9-1.08a5.1,5.1,0,0,1,.54-2,1.74,1.74,0,0,1,1.4-1,1,1,0,0,1,.85.4" transform="translate(-6.95 -7.69)"/><path d="M133,213.94c.39-1.51,1.41-1.66,1.67-1.66a.65.65,0,0,1,.73.63c0,1-1.59,1-2,1H133m.47.22a4.48,4.48,0,0,0,1.52-.23,1.13,1.13,0,0,0,.74-1c0-.44-.38-.85-1.06-.85a2.71,2.71,0,0,0-2.6,2.7,1.61,1.61,0,0,0,1.56,1.8,2.64,2.64,0,0,0,2.25-1.17.14.14,0,0,0-.12-.13s-.07,0-.13.1a2.58,2.58,0,0,1-2,1c-.78,0-.87-.83-.87-1.15a4.25,4.25,0,0,1,.16-1Z" transform="translate(-6.95 -7.69)"/><path d="M137.21,215.87c0,.15-.09.37-.09.42a.27.27,0,0,0,.29.27.41.41,0,0,0,.37-.28s.13-.48.19-.73l.22-.89c.06-.22.12-.44.17-.67s.12-.46.12-.5a2,2,0,0,1,1.63-1.21c.44,0,.53.37.53.7a10,10,0,0,1-.64,2.31,1.14,1.14,0,0,0-.1.46.79.79,0,0,0,.81.81c.93,0,1.3-1.45,1.3-1.53s-.09-.1-.12-.1-.1,0-.15.18c-.2.68-.52,1.23-1,1.23-.17,0-.24-.1-.24-.32a1.91,1.91,0,0,1,.18-.71,9,9,0,0,0,.61-2.18,1,1,0,0,0-1.15-1.07,1.93,1.93,0,0,0-1.55.87.9.9,0,0,0-.91-.87.86.86,0,0,0-.74.57,5,5,0,0,0-.3,1c0,.1.1.1.12.1s.11,0,.17-.23c.16-.7.36-1.18.72-1.18.2,0,.31.13.31.46a3.11,3.11,0,0,1-.16.83l-.58,2.3" transform="translate(-6.95 -7.69)"/><path d="M144.29,212.48h.93c.2,0,.3,0,.3-.2s-.1-.11-.28-.11h-.87c.35-1.41.4-1.61.4-1.67a.26.26,0,0,0-.29-.27.44.44,0,0,0-.39.36l-.39,1.58h-.93c-.2,0-.3,0-.3.19s.08.12.28.12h.87a25.75,25.75,0,0,0-.75,3.17.87.87,0,0,0,.91.91c1,0,1.58-1.45,1.58-1.53s-.08-.1-.12-.1-.1,0-.15.14c-.43,1-1,1.27-1.29,1.27s-.31-.13-.31-.45a1.61,1.61,0,0,1,.06-.48l.74-2.93" transform="translate(-6.95 -7.69)"/><path d="M212.05,91.86c0-.43.31-.86,1.08-.86a5.12,5.12,0,0,1,2.07.57,1.7,1.7,0,0,1,.91,1.34c0,.58-.48.88-1.07.88a5.23,5.23,0,0,1-2.08-.58,1.74,1.74,0,0,1-.91-1.35m2.6,2.65a1.56,1.56,0,0,0,1.68-1.59,3,3,0,0,0-2.82-2.66,1.58,1.58,0,0,0-1.68,1.59A2.93,2.93,0,0,0,214.65,94.51Z" transform="translate(-6.95 -7.69)"/><path d="M215,96.85a1.58,1.58,0,0,1,.69.52,1.23,1.23,0,0,1,.38.8c0,.4-.35.64-.93.64a7,7,0,0,1-2.11-.51c-.69-.34-1-.82-1-1.18,0-.66.82-.79.88-.79l.16,0,1.95.49m-4.31-1.75c-.34-.08-.41-.1-.41-.54,0-.12,0-.22-.19-.22a.11.11,0,0,0-.12.12c0,.27,0,.56,0,.84s0,.66,0,1c0,0,0,.18.2.18s.11-.1.11-.24c0-.49.07-.49.16-.49s1.74.41,2,.48a1,1,0,0,0-.64.92c0,1.15,1.45,2.39,2.91,2.39a1.42,1.42,0,0,0,1.59-1.32,1.85,1.85,0,0,0-.75-1.3.88.88,0,0,0,.75-.89.84.84,0,0,0-.57-.74,4,4,0,0,0-1-.31c-.1,0-.1.1-.1.12s0,.11.23.17c.7.17,1.18.37,1.18.73,0,.16-.08.3-.45.3a1.85,1.85,0,0,1-.51-.07Z" transform="translate(-6.95 -7.69)"/><path d="M215,101.85a1.58,1.58,0,0,1,.69.52,1.23,1.23,0,0,1,.38.8c0,.4-.35.64-.93.64a7,7,0,0,1-2.11-.51c-.69-.34-1-.82-1-1.18,0-.66.82-.79.88-.79l.16,0,1.95.49m-4.31-1.75c-.34-.08-.41-.1-.41-.54,0-.12,0-.22-.19-.22a.11.11,0,0,0-.12.12c0,.27,0,.56,0,.84s0,.66,0,1c0,0,0,.18.2.18s.11-.1.11-.24c0-.49.07-.49.16-.49s1.74.41,2,.48a1,1,0,0,0-.64.92c0,1.15,1.45,2.39,2.91,2.39a1.42,1.42,0,0,0,1.59-1.32,1.85,1.85,0,0,0-.75-1.3.88.88,0,0,0,.75-.89.84.84,0,0,0-.57-.74,4,4,0,0,0-1-.31c-.1,0-.1.1-.1.12s0,.11.23.17c.7.17,1.18.37,1.18.73,0,.16-.08.3-.45.3a1.85,1.85,0,0,1-.51-.07Z" transform="translate(-6.95 -7.69)"/><path d="M212.05,106.76c0-.43.31-.86,1.08-.86a5.12,5.12,0,0,1,2.07.57,1.7,1.7,0,0,1,.91,1.34c0,.58-.48.88-1.07.88a5.23,5.23,0,0,1-2.08-.58,1.74,1.74,0,0,1-.91-1.35m2.6,2.65a1.56,1.56,0,0,0,1.68-1.59,3,3,0,0,0-2.82-2.66,1.58,1.58,0,0,0-1.68,1.59A2.93,2.93,0,0,0,214.65,109.41Z" transform="translate(-6.95 -7.69)"/><path d="M215.66,113.44a.49.49,0,0,0-.45-.48.28.28,0,0,0-.29.31c0,.22.17.46.56.46s.85-.43.85-1.19a1.55,1.55,0,0,0-1.45-1.68c-.77,0-.92.74-1,1-.1.52-.21,1-.76,1-.26,0-1.09-.23-1.09-1.42,0-.14,0-.9.53-1.13a.53.53,0,0,0,.52.62.33.33,0,0,0,.35-.36.59.59,0,0,0-.66-.56c-.56,0-1,.57-1,1.42a1.8,1.8,0,0,0,1.65,2,1.06,1.06,0,0,0,.73-.31,1.72,1.72,0,0,0,.41-1c.08-.36.15-.76.6-.76a1,1,0,0,1,.89,1.11c0,.25-.07.75-.45.9" transform="translate(-6.95 -7.69)"/><path d="M214.41,116.32c.29.12.31.12.58.22a1.33,1.33,0,0,0,.53.13.79.79,0,0,0,.81-.82c0-.93-1.44-1.31-1.53-1.31s-.1.1-.1.12,0,.11.18.16c.93.27,1.23.66,1.23,1,0,.08,0,.25-.32.25a1.44,1.44,0,0,1-.51-.11c-.26-.08-1.41-.52-1.84-.68a2.81,2.81,0,0,0-.8-.23.79.79,0,0,0-.81.81c0,.94,1.44,1.3,1.53,1.3s.1-.08.1-.12,0-.09-.18-.14c-.62-.18-1.23-.51-1.23-1,0-.17.1-.24.33-.24a2.73,2.73,0,0,1,1,.29l1,.39m3.74.76a.35.35,0,0,0,.36-.37.57.57,0,0,0-.53-.54.36.36,0,0,0-.36.38A.57.57,0,0,0,218.15,117.08Z" transform="translate(-6.95 -7.69)"/><path d="M215.91,119.7v.93c0,.2,0,.3.2.3s.11-.1.11-.28v-.87c1.41.36,1.61.41,1.67.41a.26.26,0,0,0,.27-.29.43.43,0,0,0-.36-.4l-1.58-.39v-.93c0-.2,0-.3-.19-.3s-.12.08-.12.28V119a25.75,25.75,0,0,0-3.17-.75.88.88,0,0,0-.91.91c0,1,1.45,1.58,1.53,1.58s.1-.08.1-.12,0-.1-.14-.14c-1-.43-1.27-1-1.27-1.3s.13-.3.46-.3a2,2,0,0,1,.47,0l2.93.74" transform="translate(-6.95 -7.69)"/><path d="M214.45,122.64c1.51.39,1.66,1.42,1.66,1.67a.66.66,0,0,1-.62.74c-1,0-1-1.59-1-2v-.41m-.22.47a4.44,4.44,0,0,0,.23,1.52,1.14,1.14,0,0,0,1,.75c.43,0,.84-.38.84-1.07a2.7,2.7,0,0,0-2.7-2.6,1.61,1.61,0,0,0-1.8,1.56,2.66,2.66,0,0,0,1.17,2.26.14.14,0,0,0,.13-.12s0-.07-.1-.13a2.61,2.61,0,0,1-1-2c0-.78.83-.86,1.15-.86a4.56,4.56,0,0,1,1,.15Z" transform="translate(-6.95 -7.69)"/><path d="M88.36,108.63a.12.12,0,0,0-.17,0c-.16.16-.62.73-.79.93a.17.17,0,0,0,0,.27c.08.09.15,0,.25-.08.34-.34.4-.31.47-.24l.12.17,3,5.07c.07.12.08.14.13.18a.28.28,0,0,0,.4,0,.4.4,0,0,0,.07-.44l-.4-.67L91,113c-.12-.19-.23-.39-.36-.59,0,0-.2-.34-.23-.39a2.81,2.81,0,0,1-.17-1.13,1.54,1.54,0,0,1,.43-.92c.3-.3.61-.14.87.11a8.58,8.58,0,0,1,1.14,2,1.4,1.4,0,0,0,.29.48.79.79,0,0,0,1.15,0c.66-.66-.1-1.94-.16-2a.1.1,0,0,0-.15,0c-.07.07,0,.09,0,.24.27.47.54,1.2.15,1.59-.11.11-.23.09-.4-.07a2,2,0,0,1-.37-.62,8.81,8.81,0,0,0-1.12-2,1,1,0,0,0-1.56.06,1.85,1.85,0,0,0-.5,1.58l-1.68-2.79" transform="translate(-6.95 -7.69)"/><path d="M96,105.26a.56.56,0,0,0-.14-.19.26.26,0,0,0-.39,0,.45.45,0,0,0-.1.4s.18.32.28.47.28.48.43.71l.94,1.58a1.38,1.38,0,0,1-.19,1.39c-.36.36-.75.13-1-.13a6.11,6.11,0,0,1-1-1.74,1.85,1.85,0,0,0-.36-.65.8.8,0,0,0-1.16,0c-.66.67.1,2,.16,2a.09.09,0,0,0,.15,0c.07-.07.07-.09,0-.24-.47-.85-.4-1.34-.16-1.58,0-.06.17-.18.4,0a2.21,2.21,0,0,1,.37.61,6.23,6.23,0,0,0,1.07,1.88,1.1,1.1,0,0,0,1.69,0,1.37,1.37,0,0,0,.4-1,3.78,3.78,0,0,1,.62,1.54,1.38,1.38,0,0,1-.33,1.21.79.79,0,0,1-.83.24.52.52,0,0,0,.22-.38.5.5,0,0,0-.15-.43.33.33,0,0,0-.5,0,.57.57,0,0,0,.06.85,1,1,0,0,0,1.36-.13,2.63,2.63,0,0,0,.21-3.08l-2-3.36" transform="translate(-6.95 -7.69)"/><path d="M98.3,103.91a1.64,1.64,0,0,1-.13-.86,1.26,1.26,0,0,1,.31-.84c.28-.28.69-.2,1.11.21a7.31,7.31,0,0,1,1.13,1.85,1.55,1.55,0,0,1-.11,1.56c-.47.47-1.14,0-1.19-.07l-.09-.13-1-1.72m1.81,4.29c.19.29.22.35-.09.66-.08.09-.16.16,0,.3a.12.12,0,0,0,.18,0c.19-.19.37-.41.57-.61s.49-.45.72-.68c0,0,.12-.12,0-.26s-.15,0-.24.09c-.36.35-.4.3-.47.24s-.93-1.53-1.06-1.75a1,1,0,0,0,1.1-.2c.81-.82.67-2.72-.37-3.75a1.41,1.41,0,0,0-2.06-.19,1.86,1.86,0,0,0-.39,1.44.89.89,0,0,0-1.16.11.83.83,0,0,0-.12.92,4,4,0,0,0,.46.9c.07.07.14,0,.16,0s.07-.09,0-.28c-.39-.62-.58-1.1-.33-1.35s.28-.17.54.1a1.52,1.52,0,0,1,.31.41Z" transform="translate(-6.95 -7.69)"/><path d="M103.88,102.66c-.3.3-.83.39-1.38-.16a5.07,5.07,0,0,1-1-1.87,1.73,1.73,0,0,1,.3-1.6.93.93,0,0,1,1.38.15,5.11,5.11,0,0,1,1.06,1.87,1.73,1.73,0,0,1-.31,1.61m0-3.72a1.58,1.58,0,0,0-2.32-.07,3,3,0,0,0,.12,3.89,1.58,1.58,0,0,0,2.31.06A2.94,2.94,0,0,0,103.92,98.94Z" transform="translate(-6.95 -7.69)"/><path d="M104.58,96.39l.66-.66c.14-.14.21-.21.07-.35s-.15,0-.28.12l-.62.62c-.74-1.25-.85-1.43-.89-1.47a.26.26,0,0,0-.39,0,.44.44,0,0,0,0,.54l.84,1.39-.66.66c-.14.14-.21.21-.08.35s.14,0,.28-.12l.62-.62a25,25,0,0,0,1.71,2.78.88.88,0,0,0,1.3,0c.71-.72.09-2.14,0-2.2s-.12,0-.15,0,0,.09,0,.2c.43,1,.23,1.57,0,1.81s-.31.13-.54-.1a1.75,1.75,0,0,1-.3-.38l-1.55-2.6" transform="translate(-6.95 -7.69)"/><path d="M107.65,95.39a1.88,1.88,0,0,1,0-2.36.67.67,0,0,1,1-.07c.73.73-.4,1.85-.69,2.14l-.28.29m.48-.17A4.57,4.57,0,0,0,109,94a1.11,1.11,0,0,0-.19-1.25.94.94,0,0,0-1.35.15,2.7,2.7,0,0,0,.07,3.75,1.6,1.6,0,0,0,2.37.17,2.62,2.62,0,0,0,.77-2.42.15.15,0,0,0-.18,0s0,.06,0,.16a2.58,2.58,0,0,1-.71,2.11c-.54.54-1.2,0-1.42-.21a3.87,3.87,0,0,1-.62-.84Z" transform="translate(-6.95 -7.69)"/><path d="M111.94,93.82l.24.37a.27.27,0,0,0,.4,0,.41.41,0,0,0,.06-.45s-.25-.44-.39-.66l-.47-.79c-.12-.19-.23-.39-.36-.59s-.24-.4-.26-.44a2,2,0,0,1,.29-2c.32-.32.64-.12.87.11a9.72,9.72,0,0,1,1.19,2.09,1,1,0,0,0,.25.4.79.79,0,0,0,1.15,0c.66-.66-.1-2-.16-2s-.13,0-.16,0,0,.09,0,.23c.33.62.49,1.25.15,1.59-.12.12-.24.1-.4-.06A1.84,1.84,0,0,1,114,91a8.88,8.88,0,0,0-1.12-2,1,1,0,0,0-1.56,0,1.91,1.91,0,0,0-.49,1.71.9.9,0,0,0-1.26,0,.87.87,0,0,0-.12.93,4.75,4.75,0,0,0,.47.9.09.09,0,0,0,.15,0c.07-.07.07-.08,0-.28-.38-.62-.58-1.1-.32-1.35s.31-.13.54.1a3.42,3.42,0,0,1,.48.71l1.21,2" transform="translate(-6.95 -7.69)"/><path d="M118,87.8a.87.87,0,0,0,1.09-.16.81.81,0,0,0,.14-.9,5.09,5.09,0,0,0-.49-.91.09.09,0,0,0-.15,0c-.07.07,0,.1,0,.22.29.49.64,1.1.34,1.4s-.31.13-.54-.11a6.15,6.15,0,0,1-.59-.87l-.56-.95c-.09-.13-.29-.47-.36-.6s-.33-.54-.37-.58a.26.26,0,0,0-.39,0,.39.39,0,0,0,0,.52c.38.64,1.3,2.18,1.59,2.64a1.43,1.43,0,0,1-.21,1.39c-.37.37-.75.12-1-.14A6.6,6.6,0,0,1,115.44,87a1.79,1.79,0,0,0-.32-.57.8.8,0,0,0-1.16,0c-.66.67.1,2,.16,2a.09.09,0,0,0,.15,0c.07-.07.07-.09,0-.24-.44-.79-.43-1.31-.16-1.58.06-.06.18-.17.41.06a2.22,2.22,0,0,1,.35.59,7.11,7.11,0,0,0,1.07,1.89,1.11,1.11,0,0,0,1.71,0A1.52,1.52,0,0,0,118,87.8" transform="translate(-6.95 -7.69)"/><path d="M120.16,81.28a.47.47,0,0,0,0,.65.28.28,0,0,0,.42,0,.49.49,0,0,0-.07-.71c-.32-.32-.91-.3-1.44.23a1.54,1.54,0,0,0-.16,2.21,1.06,1.06,0,0,0,1.42,0c.43-.3.87-.59,1.26-.2a1.23,1.23,0,0,1-.23,1.78c-.1.1-.64.64-1.17.43a.55.55,0,0,0,.07-.82.34.34,0,0,0-.51,0,.58.58,0,0,0,.07.85c.4.4,1.08.28,1.69-.32a1.8,1.8,0,0,0,.24-2.58,1,1,0,0,0-.73-.3,1.79,1.79,0,0,0-1,.41c-.31.2-.64.43-1,.12a1,1,0,0,1,.15-1.43c.18-.17.58-.47,1-.3" transform="translate(-6.95 -7.69)"/><path d="M122.55,80.59a1.88,1.88,0,0,1,0-2.36.67.67,0,0,1,1-.07c.73.73-.4,1.85-.69,2.14l-.28.29m.48-.17a4.57,4.57,0,0,0,.91-1.24,1.11,1.11,0,0,0-.19-1.25.94.94,0,0,0-1.35.15,2.7,2.7,0,0,0,.07,3.75,1.6,1.6,0,0,0,2.37.17,2.62,2.62,0,0,0,.77-2.42.15.15,0,0,0-.18,0s0,.06,0,.16a2.58,2.58,0,0,1-.71,2.11c-.54.54-1.2,0-1.42-.21a3.87,3.87,0,0,1-.62-.84Z" transform="translate(-6.95 -7.69)"/></svg>