<svg id="Layer_1" data-name="Layer 1" xmlns="http://www.w3.org/2000/svg" viewBox="0 0 216.43 758.96"><defs><style>.cls-1,.cls-2{fill:none;stroke:#000;stroke-linecap:round;stroke-miterlimit:10;}.cls-1{stroke-width:0.4px;}.cls-2{stroke-width:0.8px;}</style></defs><title>CosAndSin.01</title><path class="cls-1" d="M190.18,253.33h39.25a39.3,39.3,0,0,0-11.49-27.75l-27.76,27.75" transform="translate(-189.22 -56.13)"/><path class="cls-1" d="M190.18,253.33h39.25a39.3,39.3,0,0,0-11.49-27.75" transform="translate(-189.22 -56.13)"/><polygon class="cls-2" points="0.96 197.21 197.21 197.21 197.21 0.96 0.96 197.21"/><path d="M216.54,242.56a14.11,14.11,0,0,1-1.42,3.86c-.5.89-1.1,1.7-1.83,1.7-.53,0-1-.42-1-2.13a14.77,14.77,0,0,1,.55-3.43h3.66M213,242a15.32,15.32,0,0,1,1.31-3.7c.57-1,1.18-1.86,1.93-1.86.57,0,1,.48,1,2.14a12.88,12.88,0,0,1-.55,3.42Zm5.23-2.44c0-1.76-.55-3.47-2-3.47-2.42,0-5,5.06-5,8.86,0,.8.17,3.47,2,3.47C215.62,248.46,218.25,243.52,218.25,239.6Z" transform="translate(-189.22 -56.13)"/><polyline class="cls-1" points="183.47 197.21 183.47 183.47 197.21 183.47"/><path d="M282.4,263.11a1.72,1.72,0,0,0-1.55-1.14c-2,0-4.06,2.53-4.06,5.08,0,1.71,1,2.71,2.18,2.71a3.21,3.21,0,0,0,2.24-1.31,1.49,1.49,0,0,0,1.5,1.31,1.41,1.41,0,0,0,1.25-.93,9.1,9.1,0,0,0,.51-1.71c0-.09-.06-.15-.17-.15s-.17.08-.24.34c-.26,1-.59,2.11-1.29,2.11-.5,0-.54-.45-.54-.8a4.79,4.79,0,0,1,.21-1.26c.12-.43.2-.81.34-1.31.64-2.59.8-3.21.8-3.32a.43.43,0,0,0-.45-.43c-.55,0-.69.61-.73.81m-1.1,4.43a1.54,1.54,0,0,1-.33.65,2.9,2.9,0,0,1-2,1.23c-.71,0-1.11-.64-1.11-1.66a12.4,12.4,0,0,1,.87-3.61c.58-1.21,1.39-1.83,2.07-1.83,1.14,0,1.36,1.42,1.36,1.55a1.64,1.64,0,0,1-.07.28Z" transform="translate(-189.22 -56.13)"/><path d="M290.1,267.54a1.54,1.54,0,0,1-.33.65,2.9,2.9,0,0,1-1.95,1.23c-.71,0-1.11-.64-1.11-1.66a12.4,12.4,0,0,1,.87-3.61c.58-1.21,1.39-1.83,2.07-1.83,1.14,0,1.36,1.42,1.36,1.55a1.64,1.64,0,0,1-.07.28l-.84,3.39m3.49-9.5a2,2,0,0,0,.05-.26c0-.17-.17-.17-.21-.17s-.86.06-.95.08l-.86.07c-.43,0-.55.05-.55.36s.13.18.37.18c.85,0,.87.15.87.32a1.54,1.54,0,0,1-.05.3l-1.06,4.19a1.72,1.72,0,0,0-1.55-1.14c-1.95,0-4.06,2.53-4.06,5.08,0,1.71,1,2.71,2.18,2.71a3.21,3.21,0,0,0,2.24-1.31,1.49,1.49,0,0,0,1.5,1.31,1.41,1.41,0,0,0,1.25-.93,9.1,9.1,0,0,0,.51-1.71c0-.09-.06-.15-.17-.15s-.17.08-.24.34c-.26,1-.59,2.11-1.29,2.11-.5,0-.54-.45-.54-.8a3.8,3.8,0,0,1,.12-.91Z" transform="translate(-189.22 -56.13)"/><path d="M298.55,258.81a.56.56,0,0,0-.57-.57.91.91,0,0,0-.86.83.58.58,0,0,0,.59.57.89.89,0,0,0,.84-.83m-.71,5.31a2.44,2.44,0,0,0,.07-.59,1.49,1.49,0,0,0-1.52-1.56c-1.74,0-2.67,2.53-2.67,2.65a.16.16,0,0,0,.17.15c.14,0,.15-.07.24-.24.69-1.67,1.56-2.21,2.21-2.21.36,0,.55.19.55.79a3.27,3.27,0,0,1-.12.9l-1.64,6.51c-.33,1.28-1.14,2.25-2.09,2.25a1.73,1.73,0,0,1-.76-.17.89.89,0,0,0,.75-.83.56.56,0,0,0-.59-.56.89.89,0,0,0-.87.9c0,.71.77,1,1.47,1a3.44,3.44,0,0,0,3.2-2.6Z" transform="translate(-189.22 -56.13)"/><path d="M306,263.11a1.72,1.72,0,0,0-1.55-1.14c-1.95,0-4.06,2.53-4.06,5.08,0,1.71,1,2.71,2.18,2.71a3.21,3.21,0,0,0,2.24-1.31,1.49,1.49,0,0,0,1.5,1.31,1.41,1.41,0,0,0,1.25-.93,9.1,9.1,0,0,0,.51-1.71c0-.09-.06-.15-.17-.15s-.17.08-.24.34c-.26,1-.59,2.11-1.29,2.11-.5,0-.54-.45-.54-.8a4.79,4.79,0,0,1,.21-1.26c.12-.43.2-.81.34-1.31.64-2.59.8-3.21.8-3.32a.43.43,0,0,0-.45-.43c-.55,0-.69.61-.73.81m-1.1,4.43a1.54,1.54,0,0,1-.33.65,2.9,2.9,0,0,1-1.95,1.23c-.71,0-1.11-.64-1.11-1.66a12.4,12.4,0,0,1,.87-3.61c.58-1.21,1.39-1.83,2.07-1.83,1.14,0,1.36,1.42,1.36,1.55a1.64,1.64,0,0,1-.07.28Z" transform="translate(-189.22 -56.13)"/><path d="M315.35,263.1a.9.9,0,0,0-.72.2.92.92,0,0,0-.3.63.55.55,0,0,0,.59.55,1,1,0,0,0,.88-1c0-.83-.79-1.47-2-1.47-2.27,0-4.53,2.47-4.53,4.93a2.66,2.66,0,0,0,2.69,2.86,4.6,4.6,0,0,0,3.84-2.05.2.2,0,0,0-.18-.19c-.05,0-.06,0-.22.17a4.42,4.42,0,0,1-3.4,1.73c-1.19,0-1.57-1-1.57-1.9a9.27,9.27,0,0,1,.91-3.46,3.14,3.14,0,0,1,2.47-1.74,1.64,1.64,0,0,1,1.52.78" transform="translate(-189.22 -56.13)"/><path d="M318.06,265.24c.74-2.66,2.38-2.92,2.94-2.92a1.14,1.14,0,0,1,1.28,1.1c0,1.82-2.77,1.82-3.49,1.82h-.73m.83.34a8,8,0,0,0,2.47-.34,2,2,0,0,0,1.43-1.82A1.59,1.59,0,0,0,321,262a4.67,4.67,0,0,0-4.42,4.72c0,1.81,1,3.07,2.6,3.07a4.6,4.6,0,0,0,3.84-2.05.2.2,0,0,0-.18-.19s-.06,0-.22.17a4.4,4.4,0,0,1-3.4,1.73c-1,0-1.5-.78-1.5-2.06a7.08,7.08,0,0,1,.26-1.78Z" transform="translate(-189.22 -56.13)"/><path d="M327.16,264.53a4.72,4.72,0,0,1,1.1-1.52,2.54,2.54,0,0,1,1.71-.69c.69,0,.93.52.93,1.21a15.41,15.41,0,0,1-1,3.88,2.49,2.49,0,0,0-.24.95,1.33,1.33,0,0,0,1.36,1.4c1.61,0,2.21-2.54,2.21-2.64s-.06-.15-.17-.15-.17,0-.26.34c-.39,1.42-1.05,2.11-1.72,2.11-.18,0-.45,0-.45-.57a3.51,3.51,0,0,1,.29-1.19,15.62,15.62,0,0,0,1.07-3.87A1.71,1.71,0,0,0,330,262a3.26,3.26,0,0,0-2.66,1.52,1.51,1.51,0,0,0-1.52-1.52,1.35,1.35,0,0,0-1.22.92,8,8,0,0,0-.55,1.73.17.17,0,0,0,.19.15c.13,0,.15,0,.26-.41.27-1.06.58-2,1.27-2,.4,0,.54.28.54.79a8.7,8.7,0,0,1-.3,1.59l-.48,1.87c-.07.33-.26,1.1-.34,1.41s-.32,1.26-.32,1.35a.44.44,0,0,0,.45.43.66.66,0,0,0,.59-.36c0-.09.19-.69.28-1l.38-1.55.57-2.28" transform="translate(-189.22 -56.13)"/><path d="M337.17,262.65h1.59c.33,0,.5,0,.5-.31s-.1-.19-.45-.19h-1.52l.64-2.52a1.11,1.11,0,0,0,.07-.4.43.43,0,0,0-.45-.43.69.69,0,0,0-.67.6l-.68,2.75h-1.62c-.34,0-.5,0-.5.32s.12.18.45.18h1.54l-1.14,4.56a4.64,4.64,0,0,0-.19,1,1.5,1.5,0,0,0,1.53,1.55c1.75,0,2.68-2.52,2.68-2.64s-.07-.15-.17-.15-.11,0-.14.06,0,0-.16.32c-.36.86-1.15,2.07-2.16,2.07-.51,0-.55-.43-.55-.81a3,3,0,0,1,.05-.56l1.35-5.4" transform="translate(-189.22 -56.13)"/><path d="M394.47,128.26c0-.86.69-1.5,1.9-1.5a9.33,9.33,0,0,1,3.42.89,3,3,0,0,1,1.78,2.46c0,.84-.69,1.5-1.9,1.5a8.82,8.82,0,0,1-3.59-1,3,3,0,0,1-1.61-2.33m4.58,4.51a2.66,2.66,0,0,0,2.87-2.65c0-2.28-2.49-4.52-4.93-4.52a2.65,2.65,0,0,0-2.86,2.64C394.13,130.54,396.61,132.77,399.05,132.77Z" transform="translate(-189.22 -56.13)"/><path d="M399.69,136.72a2.84,2.84,0,0,1,1.22.88,2.27,2.27,0,0,1,.66,1.42c0,.76-.76,1.1-1.66,1.1a12,12,0,0,1-3.68-.91c-.93-.43-1.76-1.23-1.76-2,0-1.18,1.49-1.37,1.56-1.37l.27.05,3.39.85m-7.58-3c-.52-.12-.66-.19-.66-.89,0-.21,0-.39-.33-.39,0,0-.17,0-.17.21s0,.47,0,.69v.75c0,.36,0,1.24,0,1.6,0,.11,0,.31.31.31s.19-.12.19-.41c0-.8.12-.85.26-.85s3.18.78,3.57.88a1.69,1.69,0,0,0-1.15,1.56c0,1.95,2.54,4.05,5.07,4.05,1.59,0,2.72-.89,2.72-2.19a3.35,3.35,0,0,0-1.32-2.23,1.49,1.49,0,0,0,1.32-1.5,1.32,1.32,0,0,0-.9-1.22,7.86,7.86,0,0,0-1.75-.56.17.17,0,0,0-.15.19c0,.14,0,.16.41.26,1,.26,2,.59,2,1.28,0,.4-.28.54-.79.54a3.24,3.24,0,0,1-.9-.13Z" transform="translate(-189.22 -56.13)"/><path d="M399.69,145.12a2.84,2.84,0,0,1,1.22.88,2.27,2.27,0,0,1,.66,1.42c0,.76-.76,1.1-1.66,1.1a12,12,0,0,1-3.68-.91c-.93-.43-1.76-1.23-1.76-2,0-1.18,1.49-1.37,1.56-1.37l.27.05,3.39.85m-7.58-3c-.52-.12-.66-.19-.66-.89,0-.21,0-.39-.33-.39,0,0-.17,0-.17.21s0,.47,0,.69v.74c0,.37,0,1.25,0,1.61,0,.11,0,.31.31.31s.19-.12.19-.41c0-.8.12-.85.26-.85s3.18.78,3.57.88a1.69,1.69,0,0,0-1.15,1.56c0,1.95,2.54,4.06,5.07,4.06,1.59,0,2.72-.9,2.72-2.2a3.35,3.35,0,0,0-1.32-2.23,1.49,1.49,0,0,0,1.32-1.5,1.34,1.34,0,0,0-.9-1.23,8.22,8.22,0,0,0-1.75-.55.17.17,0,0,0-.15.19c0,.14,0,.16.41.26,1,.26,2,.59,2,1.28,0,.4-.28.54-.79.54a3.24,3.24,0,0,1-.9-.13Z" transform="translate(-189.22 -56.13)"/><path d="M394.47,153.26c0-.86.69-1.5,1.9-1.5a9.33,9.33,0,0,1,3.42.89,3,3,0,0,1,1.78,2.46c0,.84-.69,1.5-1.9,1.5a8.82,8.82,0,0,1-3.59-1,3,3,0,0,1-1.61-2.33m4.58,4.51a2.66,2.66,0,0,0,2.87-2.65c0-2.28-2.49-4.52-4.93-4.52a2.65,2.65,0,0,0-2.86,2.64C394.13,155.54,396.61,157.77,399.05,157.77Z" transform="translate(-189.22 -56.13)"/><path d="M397.75,161.93c-.05.29-.15.76-.17.86a1.27,1.27,0,0,1-1.17,1,2.18,2.18,0,0,1-1.94-2.48c0-.37,0-1.66,1-2a.89.89,0,0,0,.83,1,.53.53,0,0,0,.56-.59.94.94,0,0,0-1.07-.88c-1,0-1.66,1-1.66,2.42a3.08,3.08,0,0,0,2.83,3.4,1.67,1.67,0,0,0,1.3-.55,3.08,3.08,0,0,0,.68-1.78c.11-.47.26-1.21,1-1.21a1.75,1.75,0,0,1,1.59,1.95,1.54,1.54,0,0,1-.9,1.61.73.73,0,0,0-.67-.8.48.48,0,0,0-.47.49c0,.24.19.72.92.72s1.47-.65,1.47-2a2.66,2.66,0,0,0-2.49-2.87c-1.31,0-1.59,1.28-1.68,1.68" transform="translate(-189.22 -56.13)"/><path d="M405.08,170.64a.58.58,0,0,0,.56-.59.88.88,0,0,0-.82-.84.56.56,0,0,0-.57.57.91.91,0,0,0,.83.86m-8.31.14c.09,0,.15-.07.15-.18s-.05-.17-.34-.25c-1.57-.45-2.11-1.16-2.11-1.73,0-.21,0-.45.57-.45a4.66,4.66,0,0,1,1.5.4l3.22,1.21a2.26,2.26,0,0,0,.77.17,1.34,1.34,0,0,0,1.39-1.37c0-1.59-2.51-2.22-2.65-2.22a.17.17,0,0,0-.15.19c0,.15.07.17.31.24,1.45.41,2.14,1.07,2.14,1.74,0,.16,0,.45-.57.45a4.58,4.58,0,0,1-1.4-.36l-3.21-1.21a2.53,2.53,0,0,0-.86-.21,1.34,1.34,0,0,0-1.4,1.37C394.13,170.16,396.65,170.78,396.77,170.78Z" transform="translate(-189.22 -56.13)"/><path d="M401.24,175.16v1.59c0,.33,0,.5.31.5s.19-.1.19-.45v-1.52l2.52.64a1.11,1.11,0,0,0,.4.07.42.42,0,0,0,.43-.45.69.69,0,0,0-.6-.67l-2.75-.67v-1.63c0-.34,0-.5-.32-.5s-.18.12-.18.45v1.54l-4.56-1.14a4.64,4.64,0,0,0-1-.19,1.5,1.5,0,0,0-1.55,1.53c0,1.75,2.52,2.68,2.64,2.68s.15-.07.15-.17,0-.11-.06-.14l-.32-.16c-.86-.36-2.07-1.15-2.07-2.15,0-.52.43-.56.81-.56a3,3,0,0,1,.56.05l5.4,1.35" transform="translate(-189.22 -56.13)"/><path d="M398.65,180.05c2.66.75,2.92,2.39,2.92,2.94a1.14,1.14,0,0,1-1.1,1.28c-1.82,0-1.82-2.77-1.82-3.49v-.73m-.34.83a8,8,0,0,0,.34,2.47,2,2,0,0,0,1.82,1.43,1.59,1.59,0,0,0,1.45-1.79,4.67,4.67,0,0,0-4.72-4.42c-1.81,0-3.07,1-3.07,2.6a4.6,4.6,0,0,0,2.05,3.84.19.19,0,0,0,.19-.17c0-.06,0-.07-.17-.23a4.4,4.4,0,0,1-1.73-3.4c0-1,.78-1.5,2.06-1.5a7.08,7.08,0,0,1,1.78.26Z" transform="translate(-189.22 -56.13)"/><path d="M253.76,161.67a1.37,1.37,0,0,0-.15-.21c-.12-.13-.24,0-.27,0s-.56.66-.61.73-.35.43-.56.66-.36.43-.14.65.22,0,.39-.14c.6-.6.72-.51.85-.39a1.86,1.86,0,0,1,.17.25l5.3,8.85a1.12,1.12,0,0,0,.24.33.42.42,0,0,0,.64,0,.71.71,0,0,0,.14-.72l-1.66-2.77c-.21-.32-.39-.65-.6-1a3.5,3.5,0,0,1,.12-4.06c.49-.49,1-.3,1.52.19a15.76,15.76,0,0,1,2,3.5,2.52,2.52,0,0,0,.5.84,1.34,1.34,0,0,0,2,0c1.13-1.14-.23-3.37-.31-3.44a.16.16,0,0,0-.23,0c-.11.11-.09.16.06.43.7,1.26.76,2.23.27,2.72-.12.12-.33.3-.72-.09a4.08,4.08,0,0,1-.65-1,15.69,15.69,0,0,0-2-3.51,1.71,1.71,0,0,0-2.64.08,3.16,3.16,0,0,0-.84,2.77l-2.81-4.7" transform="translate(-189.22 -56.13)"/><path d="M270,164.64a2.54,2.54,0,0,1-.52,2.29,1.3,1.3,0,0,1-1.51.33.42.42,0,0,0,.14-.11.87.87,0,0,0,0-1.21.53.53,0,0,0-.79,0,.93.93,0,0,0,.12,1.37,1.56,1.56,0,0,0,2.27-.18,4.52,4.52,0,0,0,.32-5.28l-3.57-6a1.84,1.84,0,0,0-.17-.25.44.44,0,0,0-.64,0,.7.7,0,0,0,0,.88l2.69,4.5a1.33,1.33,0,0,1,.22.53,2.25,2.25,0,0,1-.48,2c-.69.68-1.42.07-1.75-.26a11.7,11.7,0,0,1-1.86-3.18,3.08,3.08,0,0,0-.56-1,1.34,1.34,0,0,0-1.94,0c-1.13,1.13.19,3.35.29,3.45a.17.17,0,0,0,.24,0c.11-.12.08-.18-.05-.4-.73-1.32-.75-2.27-.28-2.75.11-.11.32-.32.72.09a4.54,4.54,0,0,1,.82,1.45,8.82,8.82,0,0,0,1.7,2.9,1.87,1.87,0,0,0,2.88,0,2.36,2.36,0,0,0,.66-1.79h0a6.61,6.61,0,0,1,1.06,2.53" transform="translate(-189.22 -56.13)"/><path d="M270.43,153.74a2.94,2.94,0,0,1-.25-1.5,2.32,2.32,0,0,1,.54-1.46c.54-.54,1.32-.25,2,.39a12,12,0,0,1,1.95,3.25,2.7,2.7,0,0,1-.18,2.68c-.83.83-2-.09-2.07-.14a1.77,1.77,0,0,1-.16-.23l-1.79-3m3.25,7.48c.28.45.33.6-.17,1.1-.15.14-.27.27,0,.5a.18.18,0,0,0,.27,0c.16-.16.3-.36.46-.52l.53-.53c.26-.25.9-.85,1.16-1.11a.27.27,0,0,0,0-.44c-.13-.13-.22,0-.43.16-.56.56-.68.51-.78.42s-1.7-2.8-1.91-3.16a1.67,1.67,0,0,0,1.92-.28c1.38-1.38,1.08-4.67-.72-6.47-1.12-1.12-2.55-1.28-3.47-.36a3.32,3.32,0,0,0-.65,2.5,1.5,1.5,0,0,0-2,.14,1.3,1.3,0,0,0-.23,1.5,8.2,8.2,0,0,0,.84,1.63.17.17,0,0,0,.24,0c.1-.09.1-.12-.11-.47-.53-.91-1-1.86-.53-2.35.28-.28.57-.18.94.18a3.83,3.83,0,0,1,.55.72Z" transform="translate(-189.22 -56.13)"/><path d="M279.86,151.68c-.61.62-1.55.58-2.41-.28a9.37,9.37,0,0,1-1.78-3.05,3.05,3.05,0,0,1,.47-3,1.64,1.64,0,0,1,2.41.28,8.9,8.9,0,0,1,1.83,3.27,3,3,0,0,1-.52,2.78m-.05-6.43a2.66,2.66,0,0,0-3.9-.16c-1.61,1.62-1.44,5,.28,6.69a2.67,2.67,0,0,0,3.9.16C281.72,150.31,281.54,147,279.81,145.25Z" transform="translate(-189.22 -56.13)"/><path d="M280.84,141.12,282,140c.23-.23.35-.35.13-.57s-.21-.06-.45.18l-1.08,1.08-1.33-2.24a1.23,1.23,0,0,0-.23-.33.43.43,0,0,0-.62,0,.69.69,0,0,0-.05.91l1.46,2.42-1.15,1.15c-.24.24-.35.35-.12.58s.21,0,.44-.19l1.09-1.09,2.42,4a4.93,4.93,0,0,0,.57.85,1.51,1.51,0,0,0,2.19,0c1.24-1.23.11-3.68,0-3.77a.15.15,0,0,0-.23,0,.11.11,0,0,0-.05.14s0,0,.11.34c.35.86.64,2.28-.06,3-.37.37-.7.09-1-.18a3.09,3.09,0,0,1-.35-.43l-2.88-4.78" transform="translate(-189.22 -56.13)"/><path d="M286.12,139.51c-1.36-2.41-.38-3.76,0-4.15a1.15,1.15,0,0,1,1.69-.12c1.28,1.28-.67,3.24-1.19,3.75l-.51.52m.83-.34a8.06,8.06,0,0,0,1.51-2,2,2,0,0,0-.27-2.3,1.6,1.6,0,0,0-2.3.25,4.67,4.67,0,0,0,.2,6.47c1.29,1.28,2.92,1.44,4,.33a4.59,4.59,0,0,0,1.26-4.17.2.2,0,0,0-.26,0s0,.06,0,.28a4.44,4.44,0,0,1-1.18,3.63c-.7.7-1.61.51-2.52-.39a7.44,7.44,0,0,1-1.08-1.45Z" transform="translate(-189.22 -56.13)"/><path d="M292.14,132.59a4.85,4.85,0,0,1-.3-1.86,2.58,2.58,0,0,1,.72-1.7c.49-.49,1-.29,1.52.2a15.63,15.63,0,0,1,2,3.49,2.47,2.47,0,0,0,.5.85,1.33,1.33,0,0,0,2,0c1.14-1.14-.23-3.36-.3-3.43a.16.16,0,0,0-.23,0c-.12.11-.09.16.06.43.72,1.28.74,2.23.27,2.71-.13.12-.33.31-.73-.08a3.38,3.38,0,0,1-.63-1.06,16.1,16.1,0,0,0-2-3.49,1.71,1.71,0,0,0-2.64.07,3.23,3.23,0,0,0-.81,3,1.5,1.5,0,0,0-2.15,0,1.35,1.35,0,0,0-.22,1.51,7.87,7.87,0,0,0,.83,1.62.17.17,0,0,0,.24,0c.1-.1.1-.13-.11-.48-.55-.94-1-1.86-.53-2.35.28-.28.57-.18.94.18a9.08,9.08,0,0,1,.91,1.34l1,1.66c.18.28.6,1,.76,1.25s.67,1.11.73,1.17a.44.44,0,0,0,.63,0,.69.69,0,0,0,.16-.67c0-.09-.36-.63-.54-.94l-.83-1.36-1.21-2" transform="translate(-189.22 -56.13)"/><path d="M303.76,126.71a1.46,1.46,0,0,0,1.87-.21,1.4,1.4,0,0,0,.21-1.55,8.43,8.43,0,0,0-.83-1.56.17.17,0,0,0-.24,0c-.1.11-.06.18.08.41.62,1.07,1,1.94.56,2.43s-.77,0-.93-.2a5.13,5.13,0,0,1-.76-1.08c-.24-.41-.49-.83-.76-1.24l-1.49-2.5a2,2,0,0,0-.28-.45.43.43,0,0,0-.63,0c-.36.35-.14.74.09,1.12.36.6,2.33,3.89,2.67,4.4a2.58,2.58,0,0,1-.38,2.39c-.64.63-1.31.2-1.76-.25a11.41,11.41,0,0,1-1.83-3.15,3.07,3.07,0,0,0-.59-1,1.34,1.34,0,0,0-1.94,0c-1.13,1.13.19,3.35.29,3.45a.17.17,0,0,0,.24,0c.11-.12.08-.18-.05-.4-.75-1.34-.74-2.28-.28-2.75.12-.12.33-.3.72.09a4.54,4.54,0,0,1,.82,1.45,9.29,9.29,0,0,0,1.69,2.89,1.89,1.89,0,0,0,2.89,0,2.63,2.63,0,0,0,.62-2.29" transform="translate(-189.22 -56.13)"/><path d="M307.44,119.56l.73-.49a1.29,1.29,0,0,1,1.55.12,2.2,2.2,0,0,1-.4,3.13c-.25.26-1.21,1.14-2.12.71a.88.88,0,0,0,.14-1.32.52.52,0,0,0-.8,0,1,1,0,0,0,.13,1.39c.72.72,1.91.43,2.89-.54a3.09,3.09,0,0,0,.4-4.42,1.65,1.65,0,0,0-1.31-.52,3.09,3.09,0,0,0-1.75.77c-.4.26-1,.67-1.58.12a1.75,1.75,0,0,1,.25-2.51,1.54,1.54,0,0,1,1.77-.5.73.73,0,0,0-.08,1,.46.46,0,0,0,.67,0,.8.8,0,0,0-.13-1.16c-.52-.52-1.51-.58-2.46.38a2.66,2.66,0,0,0-.27,3.79,1.8,1.8,0,0,0,2.37,0" transform="translate(-189.22 -56.13)"/><path d="M311.22,114.51c-1.36-2.41-.38-3.76,0-4.15a1.15,1.15,0,0,1,1.69-.12c1.28,1.28-.67,3.24-1.19,3.75l-.51.52m.83-.34a8.06,8.06,0,0,0,1.51-2,2,2,0,0,0-.27-2.3,1.6,1.6,0,0,0-2.3.25,4.67,4.67,0,0,0,.2,6.47c1.29,1.28,2.92,1.44,4,.33a4.59,4.59,0,0,0,1.26-4.17.2.2,0,0,0-.26,0s0,.06,0,.28a4.44,4.44,0,0,1-1.18,3.63c-.7.7-1.61.51-2.52-.39a7.44,7.44,0,0,1-1.08-1.45Z" transform="translate(-189.22 -56.13)"/><path d="M298.13,807.45c0-.28,0-.29-.24-.29a2.6,2.6,0,0,1-2.11.77v.34a3.45,3.45,0,0,0,1.53-.31v6.21c0,.43,0,.57-1.08.57h-.37v.35c.32,0,1.47,0,1.87,0s1.54,0,1.86,0v-.35h-.37c-1.05,0-1.09-.14-1.09-.57v-6.72" transform="translate(-189.22 -56.13)"/></svg>