<svg id="Layer_1" data-name="Layer 1" xmlns="http://www.w3.org/2000/svg" viewBox="0 0 352.9 354.15"><defs><style>.cls-1{fill:#eff2f5;}.cls-2,.cls-5{fill:none;stroke:#000;stroke-linecap:round;stroke-miterlimit:10;}.cls-2{stroke-width:0.4px;}.cls-3{fill:#fff;}.cls-11,.cls-4,.cls-9{font-size:9.96px;}.cls-4{font-family:CMMI10, CMMI10;}.cls-5{stroke-width:0.8px;}.cls-6,.cls-7,.cls-8{font-size:6.97px;}.cls-6{font-family:CMSY7, CMSY7;}.cls-7{font-family:CMR7, CMR7;}.cls-8{font-family:CMMI7, CMMI7;}.cls-9{font-family:CMR10, CMR10;}.cls-10{letter-spacing:0.17em;}.cls-11{font-family:CMSY10, CMSY10;}</style></defs><title>Unit.01</title><path class="cls-1" d="M204.29,183.15a34,34,0,0,0-4.56-17l-29.46,17" transform="translate(0 0.73)"/><path class="cls-2" d="M204.29,183.15a34,34,0,0,0-4.56-17l-29.46,17" transform="translate(0 0.73)"/><path class="cls-1" d="M204.29,183.15c0-6-1.57-11.84-2.76-13.89" transform="translate(0 0.73)"/><path class="cls-2" d="M204.29,183.15c0-6-1.57-11.84-2.76-13.89" transform="translate(0 0.73)"/><path d="M199.74,166.14a14.47,14.47,0,0,1,.7,4.21l2.6-1.5a14.47,14.47,0,0,1-3.3-2.71" transform="translate(0 0.73)"/><line class="cls-2" x1="0.2" y1="183.87" x2="336.77" y2="183.87"/><path d="M340.36,183.15a14.42,14.42,0,0,1-4-1.49v3a14.42,14.42,0,0,1,4-1.49" transform="translate(0 0.73)"/><rect class="cls-3" x="340.56" y="178.41" width="12.34" height="10.93"/><text class="cls-4" transform="translate(343.88 186.02)">x</text><line class="cls-2" x1="170.28" y1="353.96" x2="170.28" y2="17.38"/><path d="M170.28,13.07a14.42,14.42,0,0,1-1.49,4h3a14.42,14.42,0,0,1-1.49-4" transform="translate(0 0.73)"/><rect class="cls-3" x="164.34" y="0.73" width="11.88" height="12.87"/><text class="cls-4" transform="translate(167.66 8.34)">y</text><circle class="cls-5" cx="170.28" cy="183.87" r="113.39"/><line class="cls-2" x1="113.59" y1="181.88" x2="113.59" y2="185.87"/><text class="cls-6" transform="translate(105.32 193.37)">−</text><text class="cls-7" transform="translate(111.55 193.37)">0</text><text class="cls-8" transform="translate(115.52 193.37)">.</text><text class="cls-7" transform="translate(117.88 193.37)">5</text><line class="cls-2" x1="226.97" y1="181.88" x2="226.97" y2="185.87"/><text class="cls-7" transform="translate(221.82 193.78)">0</text><text class="cls-8" transform="translate(225.79 193.78)">.</text><text class="cls-7" transform="translate(228.16 193.78)">5</text><line class="cls-2" x1="68.23" y1="183.08" x2="68.23" y2="184.67"/><line class="cls-2" x1="79.57" y1="183.08" x2="79.57" y2="184.67"/><line class="cls-2" x1="90.91" y1="183.08" x2="90.91" y2="184.67"/><line class="cls-2" x1="102.25" y1="183.08" x2="102.25" y2="184.67"/><line class="cls-2" x1="124.93" y1="183.08" x2="124.93" y2="184.67"/><line class="cls-2" x1="136.26" y1="183.08" x2="136.26" y2="184.67"/><line class="cls-2" x1="147.6" y1="183.08" x2="147.6" y2="184.67"/><line class="cls-2" x1="158.94" y1="183.08" x2="158.94" y2="184.67"/><line class="cls-2" x1="272.33" y1="183.08" x2="272.33" y2="184.67"/><line class="cls-2" x1="260.99" y1="183.08" x2="260.99" y2="184.67"/><line class="cls-2" x1="249.65" y1="183.08" x2="249.65" y2="184.67"/><line class="cls-2" x1="238.31" y1="183.08" x2="238.31" y2="184.67"/><line class="cls-2" x1="215.63" y1="183.08" x2="215.63" y2="184.67"/><line class="cls-2" x1="204.3" y1="183.08" x2="204.3" y2="184.67"/><line class="cls-2" x1="192.96" y1="183.08" x2="192.96" y2="184.67"/><line class="cls-2" x1="181.62" y1="183.08" x2="181.62" y2="184.67"/><line class="cls-2" x1="172.27" y1="240.57" x2="168.29" y2="240.57"/><text class="cls-6" transform="translate(171.36 242.4)">−</text><text class="cls-7" transform="translate(177.59 242.4)">0</text><text class="cls-8" transform="translate(181.56 242.4)">.</text><text class="cls-7" transform="translate(183.92 242.4)">5</text><line class="cls-2" x1="172.27" y1="127.18" x2="168.29" y2="127.18"/><text class="cls-7" transform="translate(174.47 129.43)">0</text><text class="cls-8" transform="translate(178.44 129.43)">.</text><text class="cls-7" transform="translate(180.81 129.43)">5</text><line class="cls-2" x1="171.08" y1="285.92" x2="169.48" y2="285.92"/><line class="cls-2" x1="171.08" y1="274.58" x2="169.48" y2="274.58"/><line class="cls-2" x1="171.08" y1="263.25" x2="169.48" y2="263.25"/><line class="cls-2" x1="171.08" y1="251.91" x2="169.48" y2="251.91"/><line class="cls-2" x1="171.08" y1="229.23" x2="169.48" y2="229.23"/><line class="cls-2" x1="171.08" y1="217.89" x2="169.48" y2="217.89"/><line class="cls-2" x1="171.08" y1="206.55" x2="169.48" y2="206.55"/><line class="cls-2" x1="171.08" y1="195.21" x2="169.48" y2="195.21"/><line class="cls-2" x1="171.08" y1="81.83" x2="169.48" y2="81.83"/><line class="cls-2" x1="171.08" y1="93.16" x2="169.48" y2="93.16"/><line class="cls-2" x1="171.08" y1="104.5" x2="169.48" y2="104.5"/><line class="cls-2" x1="171.08" y1="115.84" x2="169.48" y2="115.84"/><line class="cls-2" x1="171.08" y1="138.52" x2="169.48" y2="138.52"/><line class="cls-2" x1="171.08" y1="149.86" x2="169.48" y2="149.86"/><line class="cls-2" x1="171.08" y1="161.2" x2="169.48" y2="161.2"/><line class="cls-2" x1="171.08" y1="172.54" x2="169.48" y2="172.54"/><line class="cls-2" x1="170.28" y1="183.87" x2="268.48" y2="127.18"/><circle cx="268.48" cy="127.18" r="1.59"/><circle class="cls-2" cx="268.48" cy="127.18" r="1.59"/><path class="cls-2" d="M193,185.41" transform="translate(0 0.73)"/><text class="cls-4" transform="translate(190.48 181.63)">θ</text><path class="cls-2" d="M283.67,126.45" transform="translate(0 0.73)"/><text class="cls-9" transform="translate(272.11 121.17)">(</text><text class="cls-4" transform="translate(275.98 121.17)">x<tspan class="cls-10" x="4.61" y="0">,</tspan><tspan x="8.34" y="0">y</tspan></text><text class="cls-9" transform="translate(291.35 121.17)">)</text><path class="cls-2" d="M219.38,154.8" transform="translate(0 0.73)"/><text class="cls-9" transform="translate(216.89 150.23)">1</text><path class="cls-2" d="M170.28,69.76" transform="translate(0 0.73)"/><text class="cls-9" transform="translate(22.11 177.86)">(</text><text class="cls-11" transform="translate(25.98 177.86)">−</text><text class="cls-9" transform="translate(33.73 177.86)">1</text><text class="cls-4" transform="translate(38.71 177.86)">,</text><text class="cls-9" transform="translate(43.14 177.86)">0)</text><text class="cls-9" transform="translate(289.6 177.86)">(1</text><text class="cls-4" transform="translate(298.46 177.86)">,</text><text class="cls-9" transform="translate(302.89 177.86)">0)</text><rect class="cls-3" x="152.02" y="303.13" width="36.53" height="16.6"/><text class="cls-9" transform="translate(155.34 313.93)">(0</text><text class="cls-4" transform="translate(164.19 313.93)">,</text><text class="cls-11" transform="translate(168.62 313.93)">−</text><text class="cls-9" transform="translate(176.37 313.93)">1)</text><rect class="cls-3" x="155.89" y="48.01" width="28.78" height="16.6"/><text class="cls-9" transform="translate(159.21 58.81)">(0</text><text class="cls-4" transform="translate(168.07 58.81)">,</text><text class="cls-9" transform="translate(172.49 58.81)">1)</text></svg>