<svg id="Layer_1" data-name="Layer 1" xmlns="http://www.w3.org/2000/svg" viewBox="0 0 313.65 310.9"><defs><style>.cls-1,.cls-6{fill:none;stroke-linecap:round;stroke-miterlimit:10;stroke-width:0.4px;}.cls-1{stroke:#000;}.cls-2{fill:#fff;}.cls-3,.cls-8{font-size:9.96px;}.cls-3{font-family:CMMI10, CMMI10;}.cls-4,.cls-5{font-size:6.97px;}.cls-4{font-family:CMR7, CMR7;}.cls-5{font-family:CMMI7, CMMI7;}.cls-6{stroke:red;stroke-dasharray:2.99 2.99;}.cls-7{fill:#eff2f5;}.cls-8{font-family:CMR10, CMR10;}.cls-9{letter-spacing:0.17em;}</style></defs><title>Unit.03</title><line class="cls-1" x1="17.64" y1="297.26" x2="297.52" y2="297.26"/><path d="M304.43,296.53a14.42,14.42,0,0,1-4-1.49v3a14.42,14.42,0,0,1,4-1.49" transform="translate(-3.32 0.73)"/><rect class="cls-2" x="301.31" y="291.79" width="12.34" height="10.93"/><text class="cls-3" transform="translate(304.63 299.4)">x</text><line class="cls-1" x1="17.64" y1="297.26" x2="17.64" y2="17.38"/><path d="M21,13.06a14.42,14.42,0,0,1-1.49,4h3a14.42,14.42,0,0,1-1.49-4" transform="translate(-3.32 0.73)"/><rect class="cls-2" x="11.7" y="0.72" width="11.88" height="12.87"/><text class="cls-3" transform="translate(15.02 8.34)">y</text><line class="cls-1" x1="17.64" y1="293.27" x2="17.64" y2="301.25"/><text class="cls-4" transform="translate(15.66 309.16)">0</text><line class="cls-1" x1="131.03" y1="293.27" x2="131.03" y2="301.25"/><text class="cls-4" transform="translate(125.87 309.16)">0</text><text class="cls-5" transform="translate(129.85 309.16)">.</text><text class="cls-4" transform="translate(132.21 309.16)">5</text><line class="cls-1" x1="244.42" y1="293.27" x2="244.42" y2="301.25"/><text class="cls-4" transform="translate(242.43 309.16)">1</text><line class="cls-1" x1="221.74" y1="295.67" x2="221.74" y2="298.85"/><line class="cls-1" x1="199.06" y1="295.67" x2="199.06" y2="298.85"/><line class="cls-1" x1="176.38" y1="295.67" x2="176.38" y2="298.85"/><line class="cls-1" x1="153.71" y1="295.67" x2="153.71" y2="298.85"/><line class="cls-1" x1="108.35" y1="295.67" x2="108.35" y2="298.85"/><line class="cls-1" x1="85.68" y1="295.67" x2="85.68" y2="298.85"/><line class="cls-1" x1="63" y1="295.67" x2="63" y2="298.85"/><line class="cls-1" x1="40.32" y1="295.67" x2="40.32" y2="298.85"/><line class="cls-1" x1="21.63" y1="183.87" x2="13.66" y2="183.87"/><text class="cls-4" transform="translate(0 186.12)">0</text><text class="cls-5" transform="translate(3.97 186.12)">.</text><text class="cls-4" transform="translate(6.34 186.12)">5</text><line class="cls-1" x1="21.63" y1="70.49" x2="13.66" y2="70.49"/><text class="cls-4" transform="translate(3.17 72.74)">1</text><line class="cls-1" x1="19.24" y1="93.16" x2="16.05" y2="93.16"/><line class="cls-1" x1="19.24" y1="115.84" x2="16.05" y2="115.84"/><line class="cls-1" x1="19.24" y1="138.52" x2="16.05" y2="138.52"/><line class="cls-1" x1="19.24" y1="161.19" x2="16.05" y2="161.19"/><line class="cls-1" x1="19.24" y1="206.55" x2="16.05" y2="206.55"/><line class="cls-1" x1="19.24" y1="229.23" x2="16.05" y2="229.23"/><line class="cls-1" x1="19.24" y1="251.91" x2="16.05" y2="251.91"/><line class="cls-1" x1="19.24" y1="274.58" x2="16.05" y2="274.58"/><line class="cls-6" x1="214.04" y1="297.26" x2="214.04" y2="183.87"/><polyline class="cls-1" points="244.42 297.26 243.92 282.43 242.47 267.66 240.05 253.02 236.69 238.57 232.38 224.37 227.15 210.48 221.02 196.97 214.04 183.87 206.19 171.28 197.55 159.22 188.13 147.74 178 136.91 167.16 126.77 155.69 117.36 143.63 108.71 131.03 100.87 117.94 93.88 104.42 87.76 90.53 82.53 76.34 78.21 61.88 74.85 47.24 72.43 32.47 70.98 17.64 70.48"/><line class="cls-1" x1="17.64" y1="297.26" x2="214.04" y2="183.87"/><circle cx="214.04" cy="183.87" r="1.59"/><circle class="cls-1" cx="214.04" cy="183.87" r="1.59"/><path class="cls-7" d="M21,296.53H89a68.05,68.05,0,0,0-9.11-34L21,296.53" transform="translate(-3.32 0.73)"/><path class="cls-1" d="M21,296.53H89a68.05,68.05,0,0,0-9.11-34L21,296.53" transform="translate(-3.32 0.73)"/><path class="cls-7" d="M21,296.53H89c0-11.94-3.15-23.68-7.32-30.9" transform="translate(-3.32 0.73)"/><path class="cls-1" d="M21,296.53H89c0-11.94-3.15-23.68-7.32-30.9" transform="translate(-3.32 0.73)"/><path d="M79.88,262.51a14.47,14.47,0,0,1,.7,4.21l2.6-1.5a14.47,14.47,0,0,1-3.3-2.71" transform="translate(-3.32 0.73)"/><path class="cls-1" d="M66.32,293.13" transform="translate(-3.32 0.73)"/><text class="cls-3" transform="translate(60.52 289.34)">θ</text><path class="cls-1" d="M236.4,183.14" transform="translate(-3.32 0.73)"/><text class="cls-8" transform="translate(221.52 177.86)">(</text><text class="cls-3" transform="translate(225.39 177.86)">x<tspan class="cls-9" x="4.61" y="0">,</tspan><tspan x="8.34" y="0">y</tspan></text><text class="cls-8" transform="translate(240.76 177.86)">)</text><path class="cls-1" d="M119.16,239.84" transform="translate(-3.32 0.73)"/><text class="cls-8" transform="translate(113.35 233.86)">1</text><path class="cls-1" d="M222.79,244.37" transform="translate(-3.32 0.73)"/><rect class="cls-2" x="207.86" y="238.67" width="11.88" height="12.87"/><text class="cls-3" transform="translate(211.18 246.28)">y</text><path class="cls-1" d="M134.35,303.33" transform="translate(-3.32 0.73)"/><rect class="cls-2" x="124.86" y="298.6" width="12.34" height="10.93"/><text class="cls-3" transform="translate(128.18 306.21)">x</text><polyline class="cls-1" points="202.7 297.26 202.7 285.92 214.04 285.92"/></svg>